<svg xmlns="http://www.w3.org/2000/svg" xmlns:xlink="http://www.w3.org/1999/xlink" id="exportSvg" width="600" height="400"><defs/><rect width="600" height="400" transform="translate(0, 0)" fill="#FFFFFF" style="fill: rgb(255, 255, 255);"/><g><g id="__svelte-dw-svg" clip-path="url(#rect-mask-__svelte-dw-yxEhixxNCrVlWCTn_ZNaE)"><clipPath id="rect-mask-__svelte-dw-yxEhixxNCrVlWCTn_ZNaE"><rect x="0" y="0" width="600" height="400"/></clipPath><g id="header-svg"><text transform="translate(0, 0)"><tspan fill="rgb(51,51,51)" x="0" y="22" style="font-family: Arial; font-weight: 700; font-stretch: 100%; font-size: 22px;">Teuerung in der Schweiz im langjährigen Überblick</tspan></text><text transform="translate(0, 32)"><tspan fill="rgb(51,51,51)" x="0" y="14" style="font-family: Arial; font-weight: 400; font-stretch: 100%; font-size: 14px;">Im Juni 2022 waren die Konsumgüter in der Schweiz</tspan><tspan fill="rgb(51,51,51)" style="font-family: Arial; font-weight: 700; font-stretch: 100%; font-size: 14px;">​ 3,4%</tspan><tspan fill="rgb(51,51,51)" style="font-family: Arial; font-weight: 400; font-stretch: 100%; font-size: 14px;">​ teurer als vor einem Jahr</tspan></text></g><g id="chart-svg"><g id="svg-main-svg" clip-path="url(#rect-mask-svg-main-v8P12b3w6q6jvOHR7RGP7)" transform="translate(0.00000, 64.00000)"><clipPath id="rect-mask-svg-main-v8P12b3w6q6jvOHR7RGP7"><rect x="0" y="0" width="600" height="296"/></clipPath><g id="group-svg" transform="translate(38, 33)"><g id="y-grid-lines-svg grid-y-svg datawrapper-K22wH-1l9st31-svg"><line x1="0" x2="520" y1="0" y2="0" transform="translate(0, 241)" style="fill: none; stroke-width: 1; stroke-linejoin: miter; stroke-linecap: butt; stroke: rgb(232, 232, 232);"/><line x1="0" x2="520" y1="0" y2="0" transform="translate(0, 128.90697674418607)" style="fill: none; stroke-width: 1; stroke-linejoin: miter; stroke-linecap: butt; stroke: rgb(232, 232, 232);"/><line x1="0" x2="520" y1="0" y2="0" transform="translate(0, 72.86046511627907)" style="fill: none; stroke-width: 1; stroke-linejoin: miter; stroke-linecap: butt; stroke: rgb(232, 232, 232);"/><line x1="0" x2="520" y1="0" y2="0" transform="translate(0, 16.813953488372107)" style="fill: none; stroke-width: 1; stroke-linejoin: miter; stroke-linecap: butt; stroke: rgb(232, 232, 232);"/></g><path d="M9.629629629698472,184.95348837209303L10.735962960392756,184.95348837209303L11.770919947171281,184.95348837209303L12.877253277865563,184.95348837209303L13.94789843660197,184.95348837209303L15.054231767296253,184.95348837209303L16.124876926032655,184.95348837209303L17.231210256726943,184.95348837209303L18.337543587421226,184.95348837209303L19.408188746157627,184.95348837209303L20.514522076851915,184.95348837209303L21.585167235588315,184.95348837209303L22.6915005662826,184.95348837209303L23.797833896976883,184.95348837209303L24.79710271179753,184.95348837209303L25.903436042491812,184.95348837209303L26.974081201228213,184.95348837209303L28.0804145319225,184.95348837209303L29.151059690658904,184.95348837209303L30.257393021353188,184.95348837209303L31.363726352047475,184.95348837209303L32.434371510783876,184.95348837209303L33.54070484147816,184.95348837209303L34.611350000214564,184.95348837209303L35.717683330908855,184.95348837209303L36.82401666160313,184.95348837209303L37.82328547642378,184.95348837209303L38.92961880711806,184.95348837209303L40.000263965854465,184.95348837209303L41.10659729654875,184.95348837209303L42.177242455285146,184.95348837209303L43.28357578597944,184.95348837209303L44.38990911667372,184.95348837209303L45.460554275410125,184.95348837209303L46.5668876061044,184.95348837209303L47.63753276484081,184.95348837209303L48.74386609553509,184.95348837209303L49.85019942622938,184.95348837209303L50.849468241050026,184.95348837209303L51.9558015717443,184.95348837209303L53.02644673048071,184.95348837209303L54.132780061175,184.95348837209303L55.203425219911395,184.95348837209303L56.309758550605686,184.95348837209303L57.41609188129996,184.95348837209303L58.486737040036374,184.95348837209303L59.59307037073065,184.95348837209303L60.66371552946706,184.95348837209303L61.77004886016134,184.95348837209303L62.87638219085563,184.95348837209303L63.911339177634154,184.95348837209303L65.01767250832843,184.95348837209303L66.08831766706484,184.95348837209303L67.19465099775913,184.95348837209303L68.26529615649554,184.95348837209303L69.37162948718981,184.95348837209303L70.47796281788409,184.95348837209303L71.5486079766205,184.95348837209303L72.65494130731479,184.95348837209303L73.72558646605118,184.95348837209303L74.83191979674547,184.95348837209303L75.93825312743975,184.95348837209303L76.9375219422604,184.95348837209303L78.04385527295469,184.95348837209303L79.11450043169108,184.95348837209303L80.22083376238537,184.95348837209303L81.29147892112178,184.95348837209303L82.39781225181606,184.95348837209303L83.50414558251033,184.95348837209303L84.57479074124674,184.95348837209303L85.68112407194103,184.95348837209303L86.75176923067744,184.95348837209303L87.85810256137172,184.95348837209303L88.96443589206599,184.95348837209303L89.96370470688665,184.95348837209303L91.07003803758093,184.95348837209303L92.14068319631734,184.95348837209303L93.24701652701162,184.95348837209303L94.31766168574802,184.95348837209303L95.4239950164423,184.95348837209303L96.53032834713659,184.95348837209303L97.600973505873,184.95348837209303L98.70730683656728,184.95348837209303L99.77795199530368,184.95348837209303L100.88428532599796,184.95348837209303L101.99061865669225,184.95348837209303L102.9898874715129,184.95348837209303L104.09622080220718,184.95348837209303L105.16686596094358,184.95348837209303L106.27319929163787,184.95348837209303L107.34384445037428,184.95348837209303L108.45017778106856,184.95348837209303L109.55651111176283,184.95348837209303L110.62715627049924,184.95348837209303L111.73348960119353,184.95348837209303L112.80413475992994,184.95348837209303L113.91046809062422,184.95348837209303L115.01680142131849,184.95348837209303L116.05175840809702,184.95348837209303L117.15809173879131,184.95348837209303L118.22873689752771,184.95348837209303L119.335070228222,184.95348837209303L120.40571538695839,184.95348837209303L121.51204871765268,184.95348837209303L122.61838204834697,184.95348837209303L123.68902720708337,184.95348837209303L124.79536053777765,184.95348837209303L125.86600569651405,184.95348837209303L126.97233902720835,184.95348837209303L128.07867235790263,184.95348837209303L129.07794117272329,184.95348837209303L130.18427450341756,184.95348837209303L131.25491966215398,184.95348837209303L132.36125299284825,184.95348837209303L133.43189815158465,184.95348837209303L134.53823148227895,184.95348837209303L135.64456481297321,184.95348837209303L136.71520997170964,184.95348837209303L137.8215433024039,184.95348837209303L138.8921884611403,184.95348837209303L139.9985217918346,184.95348837209303L141.10485512252887,184.95348837209303L142.10412393734953,184.95348837209303L143.2104572680438,184.95348837209303L144.2811024267802,184.95348837209303L145.3874357574745,184.95348837209303L146.4580809162109,184.95348837209303L147.5644142469052,184.95348837209303L148.67074757759946,184.95348837209303L149.74139273633585,184.95348837209303L150.84772606703015,184.95348837209303L151.91837122576655,184.95348837209303L153.02470455646082,184.95348837209303L154.13103788715512,184.95348837209303L155.13030670197577,184.95348837209303L156.23664003267007,184.95348837209303L157.30728519140644,184.95348837209303L158.41361852210073,184.95348837209303L159.48426368083713,184.95348837209303L160.59059701153143,184.95348837209303L161.69693034222573,184.95348837209303L162.76757550096212,184.95348837209303L163.8739088316564,184.95348837209303L164.94455399039282,184.95348837209303L166.0508873210871,184.95348837209303L167.1572206517814,184.95348837209303L168.19217763855988,184.95348837209303L169.29851096925415,184.95348837209303L170.36915612799058,184.95348837209303L171.47548945868485,184.95348837209303L172.54613461742127,184.95348837209303L173.65246794811554,184.95348837209303L174.75880127880984,184.95348837209303L175.82944643754624,184.95348837209303L176.93577976824054,184.95348837209303L178.00642492697693,184.95348837209303L179.1127582576712,184.95348837209303L180.2190915883655,184.95348837209303L181.21836040318615,184.95348837209303L182.32469373388042,184.95348837209303L183.39533889261685,184.95348837209303L184.50167222331112,184.95348837209303L185.57231738204752,184.95348837209303L186.6786507127418,184.95348837209303L187.78498404343608,184.95348837209303L188.85562920217248,184.95348837209303L189.96196253286678,184.95348837209303L191.03260769160318,184.95348837209303L192.13894102229747,184.95348837209303L193.24527435299174,184.95348837209303L194.2445431678124,184.95348837209303L195.35087649850666,184.95348837209303L196.42152165724306,184.95348837209303L197.52785498793736,184.95348837209303L198.59850014667376,184.95348837209303L199.70483347736803,184.95348837209303L200.81116680806232,184.95348837209303L201.88181196679872,184.95348837209303L202.98814529749302,184.95348837209303L204.05879045622942,184.95348837209303L205.1651237869237,184.95348837209303L206.271457117618,184.95348837209303L207.27072593243864,184.95348837209303L208.37705926313294,184.95348837209303L209.44770442186933,184.95348837209303L210.5540377525636,184.95348837209303L211.62468291130003,184.95348837209303L212.7310162419943,184.95348837209303L213.8373495726886,184.95348837209303L214.907994731425,184.95348837209303L216.01432806211926,184.95348837209303L217.0849732208557,184.95348837209303L218.19130655154996,184.95348837209303L219.29763988224423,184.95348837209303L220.33259686902278,184.95348837209303L221.43893019971705,184.95348837209303L222.50957535845345,184.95348837209303L223.61590868914774,184.95348837209303L224.68655384788414,184.95348837209303L225.79288717857844,184.95348837209303L226.8992205092727,184.95348837209303L227.96986566800913,184.95348837209303L229.0761989987034,184.95348837209303L230.14684415743977,184.95348837209303L231.2531774881341,184.95348837209303L232.35951081882837,184.95348837209303L233.35877963364902,184.95348837209303L234.4651129643433,184.95348837209303L235.5357581230797,184.95348837209303L236.642091453774,184.95348837209303L237.71273661251038,184.95348837209303L238.81906994320468,184.95348837209303L239.92540327389895,184.95348837209303L240.99604843263535,184.95348837209303L242.10238176332965,184.95348837209303L243.17302692206604,184.95348837209303L244.27936025276034,184.95348837209303L245.3856935834546,184.95348837209303L246.38496239827523,184.95348837209303L247.49129572896956,184.95348837209303L248.56194088770593,184.95348837209303L249.66827421840026,184.95348837209303L250.73891937713663,184.95348837209303L251.84525270783092,184.95348837209303L252.95158603852522,184.95348837209303L254.0222311972616,184.95348837209303L255.1285645279559,184.95348837209303L256.1992096866923,184.95348837209303L257.3055430173866,184.95348837209303L258.41187634808085,184.95348837209303L259.4111451629015,184.95348837209303L260.5174784935958,184.95348837209303L261.5881236523322,184.95348837209303L262.6944569830265,184.95348837209303L263.76510214176284,184.95348837209303L264.87143547245716,184.95348837209303L265.9777688031515,184.95348837209303L267.04841396188783,184.95348837209303L268.15474729258216,184.95348837209303L269.22539245131856,184.95348837209303L270.3317257820129,184.95348837209303L271.4380591127071,184.95348837209303L272.4730160994856,184.95348837209303L273.57934943017995,184.95348837209303L274.64999458891634,184.95348837209303L275.75632791961056,184.95348837209303L276.826973078347,184.95348837209303L277.9333064090413,184.95348837209303L279.03963973973555,184.95348837209303L280.11028489847195,184.95348837209303L281.2166182291663,184.95348837209303L282.28726338790267,184.95348837209303L283.39359671859694,184.95348837209303L284.49993004929127,184.95348837209303L285.4991988641119,184.95348837209303L286.60553219480613,184.95348837209303L287.6761773535426,184.95348837209303L288.78251068423685,184.95348837209303L289.8531558429733,184.95348837209303L290.9594891736675,184.95348837209303L292.06582250436185,184.95348837209303L293.13646766309824,184.95348837209303L294.2428009937925,184.95348837209303L295.3134461525289,184.95348837209303L296.41977948322324,184.95348837209303L297.52611281391745,184.95348837209303L298.52538162873816,184.95348837209303L299.6317149594324,184.95348837209303L300.7023601181688,184.95348837209303L301.8086934488631,184.95348837209303L302.8793386075995,184.95348837209303L303.98567193829376,184.95348837209303L305.0920052689881,184.95348837209303L306.1626504277245,184.95348837209303L307.26898375841876,184.95348837209303L308.33962891715515,184.95348837209303L309.4459622478495,184.95348837209303L310.5522955785437,184.95348837209303L311.5515643933644,184.95348837209303L312.65789772405867,184.95348837209303L313.72854288279507,184.95348837209303L314.83487621348934,184.95348837209303L315.90552137222573,184.95348837209303L317.01185470292006,184.95348837209303L318.11818803361433,184.95348837209303L319.1888331923507,184.95348837209303L320.29516652304505,184.95348837209303L321.36581168178145,184.95348837209303L322.47214501247566,184.95348837209303L323.57847834317,184.95348837209303L324.6134353299485,184.95348837209303L325.71976866064284,184.95348837209303L326.7904138193792,184.95348837209303L327.89674715007345,184.95348837209303L328.9673923088099,184.95348837209303L330.0737256395041,184.95348837209303L331.18005897019844,184.95348837209303L332.25070412893484,184.95348837209303L333.35703745962917,184.95348837209303L334.4276826183655,184.95348837209303L335.53401594905984,184.95348837209303L336.6403492797541,184.95348837209303L337.63961809457476,184.95348837209303L338.745951425269,184.95348837209303L339.8165965840055,184.95348837209303L340.9229299146997,184.95348837209303L341.99357507343615,184.95348837209303L343.0999084041304,184.95348837209303L344.2062417348247,184.95348837209303L345.2768868935611,184.95348837209303L346.3832202242554,184.95348837209303L347.4538653829918,184.95348837209303L348.5601987136861,184.95348837209303L349.66653204438035,184.95348837209303L350.665800859201,184.95348837209303L351.77213418989527,184.95348837209303L352.8427793486317,184.95348837209303L353.94911267932594,184.95348837209303L355.01975783806233,184.95348837209303L356.12609116875666,184.95348837209303L357.232424499451,184.95348837209303L358.3030696581873,184.95348837209303L359.40940298888165,184.95348837209303L360.48004814761805,184.95348837209303L361.5863814783123,184.95348837209303L362.6927148090066,184.95348837209303L363.69198362382724,184.95348837209303L364.7983169545215,184.95348837209303L365.8689621132579,184.95348837209303L366.97529544395223,184.95348837209303L368.04594060268863,184.95348837209303L369.1522739333829,184.95348837209303L370.2586072640772,184.95348837209303L371.3292524228136,184.95348837209303L372.4355857535079,184.95348837209303L373.5062309122443,184.95348837209303L374.61256424293856,184.95348837209303L375.71889757363283,184.95348837209303L376.7538545604114,184.95348837209303L377.8601878911057,184.95348837209303L378.9308330498421,184.95348837209303L380.03716638053635,184.95348837209303L381.1078115392728,184.95348837209303L382.214144869967,184.95348837209303L383.32047820066134,184.95348837209303L384.39112335939774,184.95348837209303L385.497456690092,184.95348837209303L386.5681018488284,184.95348837209303L387.67443517952273,184.95348837209303L388.78076851021694,184.95348837209303L389.78003732503765,184.95348837209303L390.88637065573187,184.95348837209303L391.9570158144683,184.95348837209303L393.0633491451626,184.95348837209303L394.133994303899,184.95348837209303L395.24032763459326,184.95348837209303L396.3466609652876,184.95348837209303L397.417306124024,184.95348837209303L398.52363945471825,184.95348837209303L399.59428461345465,184.95348837209303L400.700617944149,184.95348837209303L401.8069512748432,184.95348837209303L402.8062200896639,184.95348837209303L403.91255342035817,184.95348837209303L404.9831985790945,184.95348837209303L406.08953190978883,184.95348837209303L407.16017706852523,184.95348837209303L408.26651039921956,184.95348837209303L409.3728437299138,184.95348837209303L410.4434888886502,184.95348837209303L411.54982221934455,184.95348837209303L412.6204673780809,184.95348837209303L413.7268007087752,184.95348837209303L414.8331340394695,184.95348837209303L415.8324028542901,184.95348837209303L416.9387361849844,184.95348837209303L418.0093813437208,184.95348837209303L419.1157146744151,184.95348837209303L420.18635983315147,184.95348837209303L421.2926931638458,184.95348837209303L422.39902649454007,184.95348837209303L423.46967165327646,184.95348837209303L424.57600498397073,184.95348837209303L425.6466501427072,184.95348837209303L426.7529834734014,184.95348837209303L427.8593168040957,184.95348837209303L428.89427379087425,184.95348837209303L430.0006071215685,184.95348837209303L431.071252280305,184.95348837209303L432.1775856109992,184.95348837209303L433.24823076973564,184.95348837209303L434.3545641004299,184.95348837209303L435.4608974311242,184.95348837209303L436.5315425898606,184.95348837209303L437.6378759205549,184.95348837209303L438.7085210792913,184.95348837209303L439.81485440998557,184.95348837209303L440.92118774067984,184.95348837209303L441.9204565555005,184.95348837209303L443.02678988619476,184.95348837209303L444.0974350449312,184.95348837209303L445.20376837562543,184.95348837209303L446.2744135343618,184.95348837209303L447.38074686505615,184.95348837209303L448.4870801957504,184.95348837209303L449.5577253544868,184.95348837209303L450.66405868518115,184.95348837209303L451.73470384391754,184.95348837209303L452.8410371746118,184.95348837209303L453.9473705053061,184.95348837209303L454.9466393201268,184.95348837209303L456.052972650821,184.95348837209303L457.1236178095574,184.95348837209303L458.2299511402517,184.95348837209303L459.3005962989881,184.95348837209303L460.4069296296824,184.95348837209303L461.5132629603767,184.95348837209303L462.5839081191131,184.95348837209303L463.6902414498074,184.95348837209303L464.7608866085438,184.95348837209303L465.86721993923805,184.95348837209303L466.9735532699323,184.95348837209303L467.972822084753,184.95348837209303L469.07915541544725,184.95348837209303L470.14980057418364,184.95348837209303L471.25613390487797,184.95348837209303L472.32677906361437,184.95348837209303L473.43311239430864,184.95348837209303L474.53944572500296,184.95348837209303L475.61009088373936,184.95348837209303L476.7164242144336,184.95348837209303L477.78706937317,184.95348837209303L478.8934027038643,184.95348837209303L479.99973603455857,184.95348837209303L481.03469302133715,184.95348837209303L482.14102635203136,184.95348837209303L483.2116715107678,184.95348837209303L484.3180048414621,184.95348837209303L485.38865000019854,184.95348837209303L486.49498333089275,184.95348837209303L487.6013166615871,184.95348837209303L488.6719618203235,184.95348837209303L489.77829515101774,184.95348837209303L490.84894030975414,184.95348837209303L491.95527364044847,184.95348837209303L493.0616069711427,184.95348837209303L494.0608757859634,184.95348837209303L495.16720911665766,184.95348837209303L496.23785427539406,184.95348837209303L497.3441876060883,184.95348837209303L498.4148327648247,184.95348837209303L499.521166095519,184.95348837209303L500.6274994262133,184.95348837209303L501.6981445849497,184.95348837209303L502.80447791564404,184.95348837209303L503.8751230743804,184.95348837209303L504.9814564050747,184.95348837209303L506.087789735769,184.95348837209303L507.0870585505896,184.95348837209303L508.1933918812839,184.95348837209303L509.2640370400203,184.95348837209303L510.37037037071457,184.95348837209303L510.37037037071457,89.67441860465112L509.2640370400203,103.6860465116279L508.1933918812839,114.8953488372093L507.0870585505896,117.69767441860465L506.087789735769,123.30232558139534L504.9814564050747,140.11627906976742L503.8751230743804,142.9186046511628L502.80447791564404,142.9186046511628L501.6981445849497,151.32558139534882L500.6274994262133,159.7325581395349L499.521166095519,159.7325581395349L498.4148327648247,165.33720930232556L497.3441876060883,168.13953488372093L496.23785427539406,168.13953488372093L495.16720911665766,176.54651162790697L494.0608757859634,190.5581395348837L493.0616069711427,198.96511627906978L491.95527364044847,198.96511627906978L490.84894030975414,207.37209302325581L489.77829515101774,204.56976744186045L488.6719618203235,201.7674418604651L487.6013166615871,207.37209302325581L486.49498333089275,210.17441860465115L485.38865000019854,210.17441860465115L484.3180048414621,221.38372093023256L483.2116715107678,221.38372093023256L482.14102635203136,215.77906976744185L481.03469302133715,198.96511627906978L479.99973603455857,187.75581395348837L478.8934027038643,179.34883720930233L477.78706937317,179.34883720930233L476.7164242144336,187.75581395348837L475.61009088373936,193.36046511627907L474.53944572500296,182.15116279069767L473.43311239430864,176.54651162790697L472.32677906361437,176.54651162790697L471.25613390487797,168.13953488372093L470.14980057418364,168.13953488372093L469.07915541544725,165.33720930232556L467.972822084753,165.33720930232556L466.9735532699323,168.13953488372093L465.86721993923805,168.13953488372093L464.7608866085438,165.33720930232556L463.6902414498074,159.7325581395349L462.5839081191131,154.12790697674419L461.5132629603767,156.93023255813955L460.4069296296824,151.32558139534882L459.3005962989881,151.32558139534882L458.2299511402517,154.12790697674419L457.1236178095574,156.93023255813955L456.052972650821,162.53488372093022L454.9466393201268,162.53488372093022L453.9473705053061,168.13953488372093L452.8410371746118,165.33720930232556L451.73470384391754,162.53488372093022L450.66405868518115,162.53488372093022L449.5577253544868,165.33720930232556L448.4870801957504,165.33720930232556L447.38074686505615,170.9418604651163L446.2744135343618,176.54651162790697L445.20376837562543,179.34883720930233L444.0974350449312,170.9418604651163L443.02678988619476,173.74418604651163L441.9204565555005,168.13953488372093L440.92118774067984,168.13953488372093L439.81485440998557,176.54651162790697L438.7085210792913,184.95348837209303L437.6378759205549,193.36046511627907L436.5315425898606,190.5581395348837L435.4608974311242,190.5581395348837L434.3545641004299,187.75581395348837L433.24823076973564,190.5581395348837L432.1775856109992,196.1627906976744L431.071252280305,196.1627906976744L430.0006071215685,196.1627906976744L428.89427379087425,210.17441860465115L427.8593168040957,207.37209302325581L426.7529834734014,221.38372093023256L425.6466501427072,221.38372093023256L424.57600498397073,224.1860465116279L423.46967165327646,224.1860465116279L422.39902649454007,224.1860465116279L421.2926931638458,224.1860465116279L420.18635983315147,221.38372093023256L419.1157146744151,212.97674418604652L418.0093813437208,218.5813953488372L416.9387361849844,215.77906976744185L415.8324028542901,210.17441860465115L414.8331340394695,207.37209302325581L413.7268007087752,198.96511627906978L412.6204673780809,193.36046511627907L411.54982221934455,187.75581395348837L410.4434888886502,184.95348837209303L409.3728437299138,187.75581395348837L408.26651039921956,182.15116279069767L407.16017706852523,184.95348837209303L406.08953190978883,184.95348837209303L404.9831985790945,179.34883720930233L403.91255342035817,184.95348837209303L402.8062200896639,184.95348837209303L401.8069512748432,187.75581395348837L400.700617944149,182.15116279069767L399.59428461345465,182.15116279069767L398.52363945471825,182.15116279069767L397.417306124024,193.36046511627907L396.3466609652876,187.75581395348837L395.24032763459326,184.95348837209303L394.133994303899,184.95348837209303L393.0633491451626,187.75581395348837L391.9570158144683,198.96511627906978L390.88637065573187,201.7674418604651L389.78003732503765,201.7674418604651L388.78076851021694,193.36046511627907L387.67443517952273,193.36046511627907L386.5681018488284,196.1627906976744L385.497456690092,196.1627906976744L384.39112335939774,190.5581395348837L383.32047820066134,196.1627906976744L382.214144869967,198.96511627906978L381.1078115392728,204.56976744186045L380.03716638053635,215.77906976744185L378.9308330498421,212.97674418604652L377.8601878911057,212.97674418604652L376.7538545604114,212.97674418604652L375.71889757363283,210.17441860465115L374.61256424293856,207.37209302325581L373.5062309122443,204.56976744186045L372.4355857535079,198.96511627906978L371.3292524228136,187.75581395348837L370.2586072640772,170.9418604651163L369.1522739333829,179.34883720930233L368.04594060268863,170.9418604651163L366.97529544395223,168.13953488372093L365.8689621132579,173.74418604651163L364.7983169545215,176.54651162790697L363.69198362382724,156.93023255813955L362.6927148090066,170.9418604651163L361.5863814783123,176.54651162790697L360.48004814761805,170.9418604651163L359.40940298888165,179.34883720930233L358.3030696581873,179.34883720930233L357.232424499451,176.54651162790697L356.12609116875666,176.54651162790697L355.01975783806233,173.74418604651163L353.94911267932594,170.9418604651163L352.8427793486317,154.12790697674419L351.77213418989527,145.72093023255815L350.665800859201,145.72093023255815L349.66653204438035,159.7325581395349L348.5601987136861,156.93023255813955L347.4538653829918,176.54651162790697L346.3832202242554,184.95348837209303L345.2768868935611,207.37209302325581L344.2062417348247,210.17441860465115L343.0999084041304,207.37209302325581L341.99357507343615,218.5813953488372L340.9229299146997,212.97674418604652L339.8165965840055,212.97674418604652L338.745951425269,193.36046511627907L337.63961809457476,196.1627906976744L336.6403492797541,179.34883720930233L335.53401594905984,182.15116279069767L334.4276826183655,165.33720930232556L333.35703745962917,142.9186046511628L332.25070412893484,112.09302325581396L331.18005897019844,103.6860465116279L330.0737256395041,103.6860465116279L328.9673923088099,98.08139534883722L327.89674715007345,103.6860465116279L326.7904138193792,103.6860465116279L325.71976866064284,120.5L324.6134353299485,112.09302325581396L323.57847834317,117.69767441860465L322.47214501247566,117.69767441860465L321.36581168178145,128.90697674418607L320.29516652304505,134.51162790697674L319.1888331923507,148.52325581395348L318.11818803361433,165.33720930232556L317.01185470292006,173.74418604651163L315.90552137222573,165.33720930232556L314.83487621348934,168.13953488372093L313.72854288279507,170.9418604651163L312.65789772405867,170.9418604651163L311.5515643933644,179.34883720930233L310.5522955785437,184.95348837209303L309.4459622478495,182.15116279069767L308.33962891715515,168.13953488372093L307.26898375841876,170.9418604651163L306.1626504277245,176.54651162790697L305.0920052689881,162.53488372093022L303.98567193829376,142.9186046511628L302.8793386075995,145.72093023255815L301.8086934488631,140.11627906976742L300.7023601181688,145.72093023255815L299.6317149594324,154.12790697674419L298.52538162873816,156.93023255813955L297.52611281391745,145.72093023255815L296.41977948322324,148.52325581395348L295.3134461525289,156.93023255813955L294.2428009937925,156.93023255813955L293.13646766309824,148.52325581395348L292.06582250436185,145.72093023255815L290.9594891736675,156.93023255813955L289.8531558429733,151.32558139534882L288.78251068423685,165.33720930232556L287.6761773535426,154.12790697674419L286.60553219480613,145.72093023255815L285.4991988641119,145.72093023255815L284.49993004929127,145.72093023255815L283.39359671859694,151.32558139534882L282.28726338790267,148.52325581395348L281.2166182291663,142.9186046511628L280.11028489847195,148.52325581395348L279.03963973973555,159.7325581395349L277.9333064090413,156.93023255813955L276.826973078347,159.7325581395349L275.75632791961056,154.12790697674419L274.64999458891634,159.7325581395349L273.57934943017995,170.9418604651163L272.4730160994856,187.75581395348837L271.4380591127071,182.15116279069767L270.3317257820129,179.34883720930233L269.22539245131856,168.13953488372093L268.15474729258216,170.9418604651163L267.04841396188783,170.9418604651163L265.9777688031515,170.9418604651163L264.87143547245716,170.9418604651163L263.76510214176284,176.54651162790697L262.6944569830265,170.9418604651163L261.5881236523322,173.74418604651163L260.5174784935958,165.33720930232556L259.4111451629015,148.52325581395348L258.41187634808085,159.7325581395349L257.3055430173866,162.53488372093022L256.1992096866923,159.7325581395349L255.1285645279559,159.7325581395349L254.0222311972616,151.32558139534882L252.95158603852522,170.9418604651163L251.84525270783092,170.9418604651163L250.73891937713663,187.75581395348837L249.66827421840026,176.54651162790697L248.56194088770593,168.13953488372093L247.49129572896956,154.12790697674419L246.38496239827523,170.9418604651163L245.3856935834546,165.33720930232556L244.27936025276034,170.9418604651163L243.17302692206604,176.54651162790697L242.10238176332965,176.54651162790697L240.99604843263535,168.13953488372093L239.92540327389895,165.33720930232556L238.81906994320468,154.12790697674419L237.71273661251038,145.72093023255815L236.642091453774,140.11627906976742L235.5357581230797,134.51162790697674L234.4651129643433,151.32558139534882L233.35877963364902,156.93023255813955L232.35951081882837,162.53488372093022L231.2531774881341,148.52325581395348L230.14684415743977,142.9186046511628L229.0761989987034,131.7093023255814L227.96986566800913,148.52325581395348L226.8992205092727,145.72093023255815L225.79288717857844,154.12790697674419L224.68655384788414,131.7093023255814L223.61590868914774,134.51162790697674L222.50957535845345,140.11627906976742L221.43893019971705,145.72093023255815L220.33259686902278,142.9186046511628L219.29763988224423,140.11627906976742L218.19130655154996,140.11627906976742L217.0849732208557,137.31395348837208L216.01432806211926,148.52325581395348L214.907994731425,151.32558139534882L213.8373495726886,151.32558139534882L212.7310162419943,159.7325581395349L211.62468291130003,165.33720930232556L210.5540377525636,168.13953488372093L209.44770442186933,168.13953488372093L208.37705926313294,168.13953488372093L207.27072593243864,170.9418604651163L206.271457117618,176.54651162790697L205.1651237869237,182.15116279069767L204.05879045622942,190.5581395348837L202.98814529749302,187.75581395348837L201.88181196679872,184.95348837209303L200.81116680806232,182.15116279069767L199.70483347736803,182.15116279069767L198.59850014667376,182.15116279069767L197.52785498793736,182.15116279069767L196.42152165724306,182.15116279069767L195.35087649850666,184.95348837209303L194.2445431678124,184.95348837209303L193.24527435299174,184.95348837209303L192.13894102229747,184.95348837209303L191.03260769160318,173.74418604651163L189.96196253286678,173.74418604651163L188.85562920217248,176.54651162790697L187.78498404343608,173.74418604651163L186.6786507127418,170.9418604651163L185.57231738204752,170.9418604651163L184.50167222331112,170.9418604651163L183.39533889261685,168.13953488372093L182.32469373388042,170.9418604651163L181.21836040318615,170.9418604651163L180.2190915883655,162.53488372093022L179.1127582576712,162.53488372093022L178.00642492697693,162.53488372093022L176.93577976824054,165.33720930232556L175.82944643754624,162.53488372093022L174.75880127880984,168.13953488372093L173.65246794811554,168.13953488372093L172.54613461742127,165.33720930232556L171.47548945868485,165.33720930232556L170.36915612799058,165.33720930232556L169.29851096925415,159.7325581395349L168.19217763855988,159.7325581395349L167.1572206517814,162.53488372093022L166.0508873210871,142.9186046511628L164.94455399039282,131.7093023255814L163.8739088316564,131.7093023255814L162.76757550096212,128.90697674418607L161.69693034222573,128.90697674418607L160.59059701153143,128.90697674418607L159.48426368083713,128.90697674418607L158.41361852210073,126.1046511627907L157.30728519140644,128.90697674418607L156.23664003267007,140.11627906976742L155.13030670197577,140.11627906976742L154.13103788715512,142.9186046511628L153.02470455646082,156.93023255813955L151.91837122576655,173.74418604651163L150.84772606703015,168.13953488372093L149.74139273633585,173.74418604651163L148.67074757759946,168.13953488372093L147.5644142469052,170.9418604651163L146.4580809162109,168.13953488372093L145.3874357574745,170.9418604651163L144.2811024267802,173.74418604651163L143.2104572680438,156.93023255813955L142.10412393734953,148.52325581395348L141.10485512252887,134.51162790697674L139.9985217918346,126.1046511627907L138.8921884611403,114.8953488372093L137.8215433024039,123.30232558139534L136.71520997170964,89.67441860465112L135.64456481297321,89.67441860465112L134.53823148227895,84.06976744186048L133.43189815158465,89.67441860465112L132.36125299284825,98.08139534883722L131.25491966215398,84.06976744186048L130.18427450341756,78.46511627906978L129.07794117272329,84.06976744186048L128.07867235790263,89.67441860465112L126.97233902720835,86.87209302325581L125.86600569651405,89.67441860465112L124.79536053777765,92.47674418604652L123.68902720708337,86.87209302325581L122.61838204834697,86.87209302325581L121.51204871765268,84.06976744186048L120.40571538695839,78.46511627906978L119.335070228222,67.25581395348837L118.22873689752771,67.25581395348837L117.15809173879131,50.44186046511629L116.05175840809702,47.6395348837209L115.01680142131849,56.046511627906966L113.91046809062422,47.6395348837209L112.80413475992994,39.23255813953486L111.73348960119353,30.82558139534885L110.62715627049924,42.034883720930225L109.55651111176283,25.220930232558118L108.45017778106856,16.813953488372107L107.34384445037428,0L106.27319929163787,0L105.16686596094358,8.40697674418601L104.09622080220718,19.616279069767415L102.9898874715129,19.616279069767415L101.99061865669225,11.209302325581405L100.88428532599796,30.82558139534885L99.77795199530368,36.43023255813952L98.70730683656728,14.011627906976742L97.600973505873,5.604651162790674L96.53032834713659,14.011627906976742L95.4239950164423,14.011627906976742L94.31766168574802,36.43023255813952L93.24701652701162,44.83720930232559L92.14068319631734,42.034883720930225L91.07003803758093,56.046511627906966L89.96370470688665,44.83720930232559L88.96443589206599,47.6395348837209L87.85810256137172,42.034883720930225L86.75176923067744,44.83720930232559L85.68112407194103,61.65116279069764L84.57479074124674,84.06976744186048L83.50414558251033,89.67441860465112L82.39781225181606,100.88372093023256L81.29147892112178,100.88372093023256L80.22083376238537,100.88372093023256L79.11450043169108,100.88372093023256L78.04385527295469,112.09302325581396L76.9375219422604,120.5L75.93825312743975,120.5L74.83191979674547,123.30232558139534L73.72558646605118,131.7093023255814L72.65494130731479,134.51162790697674L71.5486079766205,134.51162790697674L70.47796281788409,128.90697674418607L69.37162948718981,134.51162790697674L68.26529615649554,134.51162790697674L67.19465099775913,126.1046511627907L66.08831766706484,123.30232558139534L65.01767250832843,131.7093023255814L63.911339177634154,131.7093023255814L62.87638219085563,134.51162790697674L61.77004886016134,140.11627906976742L60.66371552946706,131.7093023255814L59.59307037073065,126.1046511627907L58.486737040036374,128.90697674418607L57.41609188129996,140.11627906976742L56.309758550605686,128.90697674418607L55.203425219911395,134.51162790697674L54.132780061175,148.52325581395348L53.02644673048071,159.7325581395349L51.9558015717443,151.32558139534882L50.849468241050026,156.93023255813955L49.85019942622938,156.93023255813955L48.74386609553509,165.33720930232556L47.63753276484081,184.95348837209303L46.5668876061044,187.75581395348837L45.460554275410125,173.74418604651163L44.38990911667372,168.13953488372093L43.28357578597944,165.33720930232556L42.177242455285146,170.9418604651163L41.10659729654875,162.53488372093022L40.000263965854465,165.33720930232556L38.92961880711806,156.93023255813955L37.82328547642378,159.7325581395349L36.82401666160313,148.52325581395348L35.717683330908855,123.30232558139534L34.611350000214564,95.27906976744185L33.54070484147816,98.08139534883722L32.434371510783876,100.88372093023256L31.363726352047475,92.47674418604652L30.257393021353188,100.88372093023256L29.151059690658904,89.67441860465112L28.0804145319225,89.67441860465112L26.974081201228213,78.46511627906978L25.903436042491812,84.06976744186048L24.79710271179753,75.66279069767438L23.797833896976883,72.86046511627907L22.6915005662826,86.87209302325581L21.585167235588315,103.6860465116279L20.514522076851915,100.88372093023256L19.408188746157627,98.08139534883722L18.337543587421226,109.2906976744186L17.231210256726943,103.6860465116279L16.124876926032655,106.48837209302326L15.054231767296253,106.48837209302326L13.94789843660197,103.6860465116279L12.877253277865563,95.27906976744185L11.770919947171281,89.67441860465112L10.735962960392756,103.6860465116279L9.629629629698472,109.2906976744186Z" style="mix-blend-mode: normal; fill: rgb(204, 204, 204); opacity: 0.3;"/><g id="lines-svg"><g id="values-svg"><path d="M9.629629629698472,109.2906976744186L10.735962960392756,103.6860465116279L11.770919947171281,89.67441860465112L12.877253277865563,95.27906976744185L13.94789843660197,103.6860465116279L15.054231767296253,106.48837209302326L16.124876926032655,106.48837209302326L17.231210256726943,103.6860465116279L18.337543587421226,109.2906976744186L19.408188746157627,98.08139534883722L20.514522076851915,100.88372093023256L21.585167235588315,103.6860465116279L22.6915005662826,86.87209302325581L23.797833896976883,72.86046511627907L24.79710271179753,75.66279069767438L25.903436042491812,84.06976744186048L26.974081201228213,78.46511627906978L28.0804145319225,89.67441860465112L29.151059690658904,89.67441860465112L30.257393021353188,100.88372093023256L31.363726352047475,92.47674418604652L32.434371510783876,100.88372093023256L33.54070484147816,98.08139534883722L34.611350000214564,95.27906976744185L35.717683330908855,123.30232558139534L36.82401666160313,148.52325581395348L37.82328547642378,159.7325581395349L38.92961880711806,156.93023255813955L40.000263965854465,165.33720930232556L41.10659729654875,162.53488372093022L42.177242455285146,170.9418604651163L43.28357578597944,165.33720930232556L44.38990911667372,168.13953488372093L45.460554275410125,173.74418604651163L46.5668876061044,187.75581395348837L47.63753276484081,184.95348837209303L48.74386609553509,165.33720930232556L49.85019942622938,156.93023255813955L50.849468241050026,156.93023255813955L51.9558015717443,151.32558139534882L53.02644673048071,159.7325581395349L54.132780061175,148.52325581395348L55.203425219911395,134.51162790697674L56.309758550605686,128.90697674418607L57.41609188129996,140.11627906976742L58.486737040036374,128.90697674418607L59.59307037073065,126.1046511627907L60.66371552946706,131.7093023255814L61.77004886016134,140.11627906976742L62.87638219085563,134.51162790697674L63.911339177634154,131.7093023255814L65.01767250832843,131.7093023255814L66.08831766706484,123.30232558139534L67.19465099775913,126.1046511627907L68.26529615649554,134.51162790697674L69.37162948718981,134.51162790697674L70.47796281788409,128.90697674418607L71.5486079766205,134.51162790697674L72.65494130731479,134.51162790697674L73.72558646605118,131.7093023255814L74.83191979674547,123.30232558139534L75.93825312743975,120.5L76.9375219422604,120.5L78.04385527295469,112.09302325581396L79.11450043169108,100.88372093023256L80.22083376238537,100.88372093023256L81.29147892112178,100.88372093023256L82.39781225181606,100.88372093023256L83.50414558251033,89.67441860465112L84.57479074124674,84.06976744186048L85.68112407194103,61.65116279069764L86.75176923067744,44.83720930232559L87.85810256137172,42.034883720930225L88.96443589206599,47.6395348837209L89.96370470688665,44.83720930232559L91.07003803758093,56.046511627906966L92.14068319631734,42.034883720930225L93.24701652701162,44.83720930232559L94.31766168574802,36.43023255813952L95.4239950164423,14.011627906976742L96.53032834713659,14.011627906976742L97.600973505873,5.604651162790674L98.70730683656728,14.011627906976742L99.77795199530368,36.43023255813952L100.88428532599796,30.82558139534885L101.99061865669225,11.209302325581405L102.9898874715129,19.616279069767415L104.09622080220718,19.616279069767415L105.16686596094358,8.40697674418601L106.27319929163787,0L107.34384445037428,0L108.45017778106856,16.813953488372107L109.55651111176283,25.220930232558118L110.62715627049924,42.034883720930225L111.73348960119353,30.82558139534885L112.80413475992994,39.23255813953486L113.91046809062422,47.6395348837209L115.01680142131849,56.046511627906966L116.05175840809702,47.6395348837209L117.15809173879131,50.44186046511629L118.22873689752771,67.25581395348837L119.335070228222,67.25581395348837L120.40571538695839,78.46511627906978L121.51204871765268,84.06976744186048L122.61838204834697,86.87209302325581L123.68902720708337,86.87209302325581L124.79536053777765,92.47674418604652L125.86600569651405,89.67441860465112L126.97233902720835,86.87209302325581L128.07867235790263,89.67441860465112L129.07794117272329,84.06976744186048L130.18427450341756,78.46511627906978L131.25491966215398,84.06976744186048L132.36125299284825,98.08139534883722L133.43189815158465,89.67441860465112L134.53823148227895,84.06976744186048L135.64456481297321,89.67441860465112L136.71520997170964,89.67441860465112L137.8215433024039,123.30232558139534L138.8921884611403,114.8953488372093L139.9985217918346,126.1046511627907L141.10485512252887,134.51162790697674L142.10412393734953,148.52325581395348L143.2104572680438,156.93023255813955L144.2811024267802,173.74418604651163L145.3874357574745,170.9418604651163L146.4580809162109,168.13953488372093L147.5644142469052,170.9418604651163L148.67074757759946,168.13953488372093L149.74139273633585,173.74418604651163L150.84772606703015,168.13953488372093L151.91837122576655,173.74418604651163L153.02470455646082,156.93023255813955L154.13103788715512,142.9186046511628L155.13030670197577,140.11627906976742L156.23664003267007,140.11627906976742L157.30728519140644,128.90697674418607L158.41361852210073,126.1046511627907L159.48426368083713,128.90697674418607L160.59059701153143,128.90697674418607L161.69693034222573,128.90697674418607L162.76757550096212,128.90697674418607L163.8739088316564,131.7093023255814L164.94455399039282,131.7093023255814L166.0508873210871,142.9186046511628L167.1572206517814,162.53488372093022L168.19217763855988,159.7325581395349L169.29851096925415,159.7325581395349L170.36915612799058,165.33720930232556L171.47548945868485,165.33720930232556L172.54613461742127,165.33720930232556L173.65246794811554,168.13953488372093L174.75880127880984,168.13953488372093L175.82944643754624,162.53488372093022L176.93577976824054,165.33720930232556L178.00642492697693,162.53488372093022L179.1127582576712,162.53488372093022L180.2190915883655,162.53488372093022L181.21836040318615,170.9418604651163L182.32469373388042,170.9418604651163L183.39533889261685,168.13953488372093L184.50167222331112,170.9418604651163L185.57231738204752,170.9418604651163L186.6786507127418,170.9418604651163L187.78498404343608,173.74418604651163L188.85562920217248,176.54651162790697L189.96196253286678,173.74418604651163L191.03260769160318,173.74418604651163L192.13894102229747,184.95348837209303L193.24527435299174,184.95348837209303L194.2445431678124,184.95348837209303L195.35087649850666,184.95348837209303L196.42152165724306,182.15116279069767L197.52785498793736,182.15116279069767L198.59850014667376,182.15116279069767L199.70483347736803,182.15116279069767L200.81116680806232,182.15116279069767L201.88181196679872,184.95348837209303L202.98814529749302,187.75581395348837L204.05879045622942,190.5581395348837L205.1651237869237,182.15116279069767L206.271457117618,176.54651162790697L207.27072593243864,170.9418604651163L208.37705926313294,168.13953488372093L209.44770442186933,168.13953488372093L210.5540377525636,168.13953488372093L211.62468291130003,165.33720930232556L212.7310162419943,159.7325581395349L213.8373495726886,151.32558139534882L214.907994731425,151.32558139534882L216.01432806211926,148.52325581395348L217.0849732208557,137.31395348837208L218.19130655154996,140.11627906976742L219.29763988224423,140.11627906976742L220.33259686902278,142.9186046511628L221.43893019971705,145.72093023255815L222.50957535845345,140.11627906976742L223.61590868914774,134.51162790697674L224.68655384788414,131.7093023255814L225.79288717857844,154.12790697674419L226.8992205092727,145.72093023255815L227.96986566800913,148.52325581395348L229.0761989987034,131.7093023255814L230.14684415743977,142.9186046511628L231.2531774881341,148.52325581395348L232.35951081882837,162.53488372093022L233.35877963364902,156.93023255813955L234.4651129643433,151.32558139534882L235.5357581230797,134.51162790697674L236.642091453774,140.11627906976742L237.71273661251038,145.72093023255815L238.81906994320468,154.12790697674419L239.92540327389895,165.33720930232556L240.99604843263535,168.13953488372093L242.10238176332965,176.54651162790697L243.17302692206604,176.54651162790697L244.27936025276034,170.9418604651163L245.3856935834546,165.33720930232556L246.38496239827523,170.9418604651163L247.49129572896956,154.12790697674419L248.56194088770593,168.13953488372093L249.66827421840026,176.54651162790697L250.73891937713663,187.75581395348837L251.84525270783092,170.9418604651163L252.95158603852522,170.9418604651163L254.0222311972616,151.32558139534882L255.1285645279559,159.7325581395349L256.1992096866923,159.7325581395349L257.3055430173866,162.53488372093022L258.41187634808085,159.7325581395349L259.4111451629015,148.52325581395348L260.5174784935958,165.33720930232556L261.5881236523322,173.74418604651163L262.6944569830265,170.9418604651163L263.76510214176284,176.54651162790697L264.87143547245716,170.9418604651163L265.9777688031515,170.9418604651163L267.04841396188783,170.9418604651163L268.15474729258216,170.9418604651163L269.22539245131856,168.13953488372093L270.3317257820129,179.34883720930233L271.4380591127071,182.15116279069767L272.4730160994856,187.75581395348837L273.57934943017995,170.9418604651163L274.64999458891634,159.7325581395349L275.75632791961056,154.12790697674419L276.826973078347,159.7325581395349L277.9333064090413,156.93023255813955L279.03963973973555,159.7325581395349L280.11028489847195,148.52325581395348L281.2166182291663,142.9186046511628L282.28726338790267,148.52325581395348L283.39359671859694,151.32558139534882L284.49993004929127,145.72093023255815L285.4991988641119,145.72093023255815L286.60553219480613,145.72093023255815L287.6761773535426,154.12790697674419L288.78251068423685,165.33720930232556L289.8531558429733,151.32558139534882L290.9594891736675,156.93023255813955L292.06582250436185,145.72093023255815L293.13646766309824,148.52325581395348L294.2428009937925,156.93023255813955L295.3134461525289,156.93023255813955L296.41977948322324,148.52325581395348L297.52611281391745,145.72093023255815L298.52538162873816,156.93023255813955L299.6317149594324,154.12790697674419L300.7023601181688,145.72093023255815L301.8086934488631,140.11627906976742L302.8793386075995,145.72093023255815L303.98567193829376,142.9186046511628L305.0920052689881,162.53488372093022L306.1626504277245,176.54651162790697L307.26898375841876,170.9418604651163L308.33962891715515,168.13953488372093L309.4459622478495,182.15116279069767L310.5522955785437,184.95348837209303L311.5515643933644,179.34883720930233L312.65789772405867,170.9418604651163L313.72854288279507,170.9418604651163L314.83487621348934,168.13953488372093L315.90552137222573,165.33720930232556L317.01185470292006,173.74418604651163L318.11818803361433,165.33720930232556L319.1888331923507,148.52325581395348L320.29516652304505,134.51162790697674L321.36581168178145,128.90697674418607L322.47214501247566,117.69767441860465L323.57847834317,117.69767441860465L324.6134353299485,112.09302325581396L325.71976866064284,120.5L326.7904138193792,103.6860465116279L327.89674715007345,103.6860465116279L328.9673923088099,98.08139534883722L330.0737256395041,103.6860465116279L331.18005897019844,103.6860465116279L332.25070412893484,112.09302325581396L333.35703745962917,142.9186046511628L334.4276826183655,165.33720930232556L335.53401594905984,182.15116279069767L336.6403492797541,179.34883720930233L337.63961809457476,196.1627906976744L338.745951425269,193.36046511627907L339.8165965840055,212.97674418604652L340.9229299146997,212.97674418604652L341.99357507343615,218.5813953488372L343.0999084041304,207.37209302325581L344.2062417348247,210.17441860465115L345.2768868935611,207.37209302325581L346.3832202242554,184.95348837209303L347.4538653829918,176.54651162790697L348.5601987136861,156.93023255813955L349.66653204438035,159.7325581395349L350.665800859201,145.72093023255815L351.77213418989527,145.72093023255815L352.8427793486317,154.12790697674419L353.94911267932594,170.9418604651163L355.01975783806233,173.74418604651163L356.12609116875666,176.54651162790697L357.232424499451,176.54651162790697L358.3030696581873,179.34883720930233L359.40940298888165,179.34883720930233L360.48004814761805,170.9418604651163L361.5863814783123,176.54651162790697L362.6927148090066,170.9418604651163L363.69198362382724,156.93023255813955L364.7983169545215,176.54651162790697L365.8689621132579,173.74418604651163L366.97529544395223,168.13953488372093L368.04594060268863,170.9418604651163L369.1522739333829,179.34883720930233L370.2586072640772,170.9418604651163L371.3292524228136,187.75581395348837L372.4355857535079,198.96511627906978L373.5062309122443,204.56976744186045L374.61256424293856,207.37209302325581L375.71889757363283,210.17441860465115L376.7538545604114,212.97674418604652L377.8601878911057,212.97674418604652L378.9308330498421,212.97674418604652L380.03716638053635,215.77906976744185L381.1078115392728,204.56976744186045L382.214144869967,198.96511627906978L383.32047820066134,196.1627906976744L384.39112335939774,190.5581395348837L385.497456690092,196.1627906976744L386.5681018488284,196.1627906976744L387.67443517952273,193.36046511627907L388.78076851021694,193.36046511627907L389.78003732503765,201.7674418604651L390.88637065573187,201.7674418604651L391.9570158144683,198.96511627906978L393.0633491451626,187.75581395348837L394.133994303899,184.95348837209303L395.24032763459326,184.95348837209303L396.3466609652876,187.75581395348837L397.417306124024,193.36046511627907L398.52363945471825,182.15116279069767L399.59428461345465,182.15116279069767L400.700617944149,182.15116279069767L401.8069512748432,187.75581395348837L402.8062200896639,184.95348837209303L403.91255342035817,184.95348837209303L404.9831985790945,179.34883720930233L406.08953190978883,184.95348837209303L407.16017706852523,184.95348837209303L408.26651039921956,182.15116279069767L409.3728437299138,187.75581395348837L410.4434888886502,184.95348837209303L411.54982221934455,187.75581395348837L412.6204673780809,193.36046511627907L413.7268007087752,198.96511627906978L414.8331340394695,207.37209302325581L415.8324028542901,210.17441860465115L416.9387361849844,215.77906976744185L418.0093813437208,218.5813953488372L419.1157146744151,212.97674418604652L420.18635983315147,221.38372093023256L421.2926931638458,224.1860465116279L422.39902649454007,224.1860465116279L423.46967165327646,224.1860465116279L424.57600498397073,224.1860465116279L425.6466501427072,221.38372093023256L426.7529834734014,221.38372093023256L427.8593168040957,207.37209302325581L428.89427379087425,210.17441860465115L430.0006071215685,196.1627906976744L431.071252280305,196.1627906976744L432.1775856109992,196.1627906976744L433.24823076973564,190.5581395348837L434.3545641004299,187.75581395348837L435.4608974311242,190.5581395348837L436.5315425898606,190.5581395348837L437.6378759205549,193.36046511627907L438.7085210792913,184.95348837209303L439.81485440998557,176.54651162790697L440.92118774067984,168.13953488372093L441.9204565555005,168.13953488372093L443.02678988619476,173.74418604651163L444.0974350449312,170.9418604651163L445.20376837562543,179.34883720930233L446.2744135343618,176.54651162790697L447.38074686505615,170.9418604651163L448.4870801957504,165.33720930232556L449.5577253544868,165.33720930232556L450.66405868518115,162.53488372093022L451.73470384391754,162.53488372093022L452.8410371746118,165.33720930232556L453.9473705053061,168.13953488372093L454.9466393201268,162.53488372093022L456.052972650821,162.53488372093022L457.1236178095574,156.93023255813955L458.2299511402517,154.12790697674419L459.3005962989881,151.32558139534882L460.4069296296824,151.32558139534882L461.5132629603767,156.93023255813955L462.5839081191131,154.12790697674419L463.6902414498074,159.7325581395349L464.7608866085438,165.33720930232556L465.86721993923805,168.13953488372093L466.9735532699323,168.13953488372093L467.972822084753,165.33720930232556L469.07915541544725,165.33720930232556L470.14980057418364,168.13953488372093L471.25613390487797,168.13953488372093L472.32677906361437,176.54651162790697L473.43311239430864,176.54651162790697L474.53944572500296,182.15116279069767L475.61009088373936,193.36046511627907L476.7164242144336,187.75581395348837L477.78706937317,179.34883720930233L478.8934027038643,179.34883720930233L479.99973603455857,187.75581395348837L481.03469302133715,198.96511627906978L482.14102635203136,215.77906976744185L483.2116715107678,221.38372093023256L484.3180048414621,221.38372093023256L485.38865000019854,210.17441860465115L486.49498333089275,210.17441860465115L487.6013166615871,207.37209302325581L488.6719618203235,201.7674418604651L489.77829515101774,204.56976744186045L490.84894030975414,207.37209302325581L491.95527364044847,198.96511627906978L493.0616069711427,198.96511627906978L494.0608757859634,190.5581395348837L495.16720911665766,176.54651162790697L496.23785427539406,168.13953488372093L497.3441876060883,168.13953488372093L498.4148327648247,165.33720930232556L499.521166095519,159.7325581395349L500.6274994262133,159.7325581395349L501.6981445849497,151.32558139534882L502.80447791564404,142.9186046511628L503.8751230743804,142.9186046511628L504.9814564050747,140.11627906976742L506.087789735769,123.30232558139534L507.0870585505896,117.69767441860465L508.1933918812839,114.8953488372093L509.2640370400203,103.6860465116279L510.37037037071457,89.67441860465112" stroke="rgb(31,119,180)" id="values" style="mix-blend-mode: normal; fill: none; stroke-width: 3; stroke-linejoin: round; stroke-linecap: round; stroke: rgb(31, 119, 180);"/></g></g><g id="line-symbols-svg"><path d="M -1,0 a 1,1 0 1,0 2,0 a 1,1 0 1,0 -2,0 Z" id="values" transform="translate(510.37037037071457, 89.67441860465112) scale(6)" style="mix-blend-mode: normal; fill: rgb(31, 119, 180);"/></g><g id="x-tick-labels-svg grid-x-svg date-axis-svg datawrapper-K22wH-14jwf37-svg" transform="translate(0, 246)"><text transform="translate(22.6915005662826, 14) translate(-16.00000, 0.00000) translate(16, 0)" style="text-anchor: middle;"><tspan fill="rgb(123, 123, 123)" style="font-family: Arial; font-weight: 400; font-stretch: 100%; font-size: 14px;" x="0" dominant-baseline="auto" y="0">1985</tspan></text><text transform="translate(87.85810256137172, 14) translate(-16.00000, 0.00000) translate(15.999996185302734, 0)" style="text-anchor: middle;"><tspan fill="rgb(123, 123, 123)" style="font-family: Arial; font-weight: 400; font-stretch: 100%; font-size: 14px;" x="0" dominant-baseline="auto" y="0">1990</tspan></text><text transform="translate(153.02470455646082, 14) translate(-16.00000, 0.00000) translate(16, 0)" style="text-anchor: middle;"><tspan fill="rgb(123, 123, 123)" style="font-family: Arial; font-weight: 400; font-stretch: 100%; font-size: 14px;" x="0" dominant-baseline="auto" y="0">1995</tspan></text><text transform="translate(218.19130655154996, 14) translate(-15.99999, 0.00000) translate(15.999992370605469, 0)" style="text-anchor: middle;"><tspan fill="rgb(123, 123, 123)" style="font-family: Arial; font-weight: 400; font-stretch: 100%; font-size: 14px;" x="0" dominant-baseline="auto" y="0">2000</tspan></text><text transform="translate(283.39359671859694, 14) translate(-16.00000, 0.00000) translate(16, 0)" style="text-anchor: middle;"><tspan fill="rgb(123, 123, 123)" style="font-family: Arial; font-weight: 400; font-stretch: 100%; font-size: 14px;" x="0" dominant-baseline="auto" y="0">2005</tspan></text><text transform="translate(348.5601987136861, 14) translate(-16.00000, 0.00000) translate(16, 0)" style="text-anchor: middle;"><tspan fill="rgb(123, 123, 123)" style="font-family: Arial; font-weight: 400; font-stretch: 100%; font-size: 14px;" x="0" dominant-baseline="auto" y="0">2010</tspan></text><text transform="translate(413.7268007087752, 14) translate(-16.00000, 0.00000) translate(16, 0)" style="text-anchor: middle;"><tspan fill="rgb(123, 123, 123)" style="font-family: Arial; font-weight: 400; font-stretch: 100%; font-size: 14px;" x="0" dominant-baseline="auto" y="0">2015</tspan></text><text transform="translate(478.8934027038643, 14) translate(-16.00002, 0.00000) translate(16.000015258789062, 0)" style="text-anchor: middle;"><tspan fill="rgb(123, 123, 123)" style="font-family: Arial; font-weight: 400; font-stretch: 100%; font-size: 14px;" x="0" dominant-baseline="auto" y="0">2020</tspan></text></g><g id="x-base-lines-svg grid-x-svg datawrapper-K22wH-n2qvu0-svg"/><g id="y-tick-labels-svg grid-y-svg number-axis-svg datawrapper-K22wH-126iv6-svg" transform="translate(-5, 0)"><text transform="translate(0, 246) translate(-28.00000, 0.00000) translate(28, 0)" style="text-anchor: end;"><tspan fill="rgb(166, 166, 166)" style="font-family: Arial; font-weight: 400; font-stretch: 100%; font-size: 14px;" x="0" dominant-baseline="auto" y="0">−2,0</tspan></text><text transform="translate(0, 189.95348837209303) translate(-20.00000, 0.00000) translate(20, 0)" style="text-anchor: end;"><tspan fill="rgb(166, 166, 166)" style="font-family: Arial; font-weight: 400; font-stretch: 100%; font-size: 14px;" x="0" dominant-baseline="auto" y="0">0,0</tspan></text><text transform="translate(0, 133.90697674418607) translate(-20.00000, 0.00000) translate(20, 0)" style="text-anchor: end;"><tspan fill="rgb(166, 166, 166)" style="font-family: Arial; font-weight: 400; font-stretch: 100%; font-size: 14px;" x="0" dominant-baseline="auto" y="0">2,0</tspan></text><text transform="translate(0, 77.86046511627907) translate(-20.00000, 0.00000) translate(20, 0)" style="text-anchor: end;"><tspan fill="rgb(166, 166, 166)" style="font-family: Arial; font-weight: 400; font-stretch: 100%; font-size: 14px;" x="0" dominant-baseline="auto" y="0">4,0</tspan></text><text transform="translate(0, 21.813953488372107) translate(-32.00000, 0.00000) translate(32, 0)" style="text-anchor: end;"><tspan fill="rgb(166, 166, 166)" style="font-family: Arial; font-weight: 400; font-stretch: 100%; font-size: 14px;" x="0" dominant-baseline="auto" y="0">6,0%</tspan></text></g><g id="y-base-lines-svg grid-y-svg datawrapper-K22wH-n2qvu0-svg"><line x1="520" x2="0" y1="0" y2="0" transform="translate(0, 184.95348837209303)" style="fill: none; stroke-width: 1; stroke-linejoin: miter; stroke-linecap: square; stroke: rgb(51, 51, 51);"/></g></g></g><g id="values-svg" clip-path="url(#rect-mask-values-n112wSo0H9m7Una1yAc_L)" transform="translate(0.00000, 64.00000)"><clipPath id="rect-mask-values-n112wSo0H9m7Una1yAc_L"><rect x="0" y="0" width="16" height="20"/></clipPath><path d="M1.5,10 L14.5,10" stroke="rgb(31,119,180)" id="values" style="mix-blend-mode: normal; fill: none; stroke-width: 3; stroke-linejoin: round; stroke-linecap: round; stroke: rgb(31, 119, 180);"/></g><text transform="translate(20, 67.03125)" id="values"><tspan fill="rgb(51,51,51)" x="0" y="14" style="font-family: Arial; font-weight: 400; font-stretch: 100%; font-size: 14px;">Veränderung zum Vorjahr</tspan></text><text transform="translate(558, 181.671875)" id="values"><tspan fill="rgb(51,51,51)" x="0" y="14" style="font-family: Arial; font-weight: 400; font-stretch: 100%; font-size: 14px;">3,4%</tspan></text><g id="tooltip-layer-svg" clip-path="url(#rect-mask-tooltip-layer-AE3xom1PnU_huwZZ4Oc8I)" transform="translate(0.00000, 64.00000)"><clipPath id="rect-mask-tooltip-layer-AE3xom1PnU_huwZZ4Oc8I"><rect x="0" y="0" width="600" height="296"/></clipPath><g id="group-svg" transform="translate(38, 33)"/></g></g><g id="above-footer-svg"><text transform="translate(0, 380)"><tspan fill="rgb(51,51,51)" x="0" y="12" style="font-family: Arial; font-weight: 400; font-stretch: 100%; font-size: 12px;">Grafik: Keystone-SDA, Quelle: BFS</tspan></text></g><g id="footer-svg"/></g></g></svg>