<svg xmlns="http://www.w3.org/2000/svg" xmlns:xlink="http://www.w3.org/1999/xlink" id="exportSvg" width="600" height="400"><defs/><rect width="600" height="400" transform="translate(0, 0)" fill="#FFFFFF" style="fill: rgb(255, 255, 255);"/><g><g id="__svelte-dw-svg" clip-path="url(#rect-mask-__svelte-dw-sqSau1JsGXwaiiQ84ilZD)"><clipPath id="rect-mask-__svelte-dw-sqSau1JsGXwaiiQ84ilZD"><rect x="0" y="0" width="600" height="400"/></clipPath><g id="header-svg"><text transform="translate(0, 0)"><tspan fill="rgb(51,51,51)" x="0" y="22" style="font-family: Arial; font-weight: 700; font-stretch: 100%; font-size: 22px;">Teuerung in der Schweiz im langjährigen Überblick</tspan></text><text transform="translate(0, 31)"><tspan fill="rgb(51,51,51)" x="0" y="14" style="font-family: Arial; font-weight: 400; font-stretch: 100%; font-size: 14px;">Entwicklung der Konsumentenpreise seit 1984</tspan></text></g><g id="chart-svg"><g id="svg-main-svg" clip-path="url(#rect-mask-svg-main-CTLvmFI6Qa12cpHmT0DFk)" transform="translate(0.00000, 63.00000)"><clipPath id="rect-mask-svg-main-CTLvmFI6Qa12cpHmT0DFk"><rect x="0" y="0" width="600" height="298"/></clipPath><g id="group-svg" transform="translate(38.1328125, 33)"><g id="y-grid-lines-svg grid-y-svg datawrapper-K22wH-1l9st31-svg"><line x1="0" x2="519.8671875" y1="0" y2="0" transform="translate(0, 243)" style="fill: none; stroke-width: 1; stroke-linejoin: miter; stroke-linecap: butt; stroke: rgb(232, 232, 232);"/><line x1="0" x2="519.8671875" y1="0" y2="0" transform="translate(0, 129.97674418604652)" style="fill: none; stroke-width: 1; stroke-linejoin: miter; stroke-linecap: butt; stroke: rgb(232, 232, 232);"/><line x1="0" x2="519.8671875" y1="0" y2="0" transform="translate(0, 73.46511627906978)" style="fill: none; stroke-width: 1; stroke-linejoin: miter; stroke-linecap: butt; stroke: rgb(232, 232, 232);"/><line x1="0" x2="519.8671875" y1="0" y2="0" transform="translate(0, 16.953488372093034)" style="fill: none; stroke-width: 1; stroke-linejoin: miter; stroke-linecap: butt; stroke: rgb(232, 232, 232);"/></g><path d="M9.629538515143693,186.48837209302326L10.73802790261326,186.48837209302326L11.77500184572995,186.48837209302326L12.883491233199516,186.48837209302326L13.956222898492644,186.48837209302326L15.06471228596221,186.48837209302326L16.13744395125534,186.48837209302326L17.245933338724907,186.48837209302326L18.35442272619447,186.48837209302326L19.427154391487598,186.48837209302326L20.535643778957162,186.48837209302326L21.60837544425029,186.48837209302326L22.716864831719857,186.48837209302326L23.82535421918942,186.48837209302326L24.826570440129675,186.48837209302326L25.93505982759924,186.48837209302326L27.00779149289237,186.48837209302326L28.116280880361934,186.48837209302326L29.189012545655064,186.48837209302326L30.29750193312463,186.48837209302326L31.405991320594193,186.48837209302326L32.47872298588732,186.48837209302326L33.58721237335689,186.48837209302326L34.65994403865002,186.48837209302326L35.768433426119586,186.48837209302326L36.876922813589154,186.48837209302326L37.878139034529404,186.48837209302326L38.98662842199897,186.48837209302326L40.0593600872921,186.48837209302326L41.16784947476167,186.48837209302326L42.24058114005479,186.48837209302326L43.34907052752436,186.48837209302326L44.45755991499392,186.48837209302326L45.530291580287056,186.48837209302326L46.63878096775662,186.48837209302326L47.71151263304975,186.48837209302326L48.82000202051931,186.48837209302326L49.92849140798888,186.48837209302326L50.92970762892913,186.48837209302326L52.03819701639869,186.48837209302326L53.110928681691824,186.48837209302326L54.219418069161385,186.48837209302326L55.29214973445452,186.48837209302326L56.40063912192408,186.48837209302326L57.50912850939365,186.48837209302326L58.581860174686774,186.48837209302326L59.69034956215634,186.48837209302326L60.76308122744947,186.48837209302326L61.87157061491904,186.48837209302326L62.9800600023886,186.48837209302326L64.01703394550529,186.48837209302326L65.12552333297485,186.48837209302326L66.19825499826798,186.48837209302326L67.30674438573755,186.48837209302326L68.37947605103068,186.48837209302326L69.48796543850024,186.48837209302326L70.59645482596981,186.48837209302326L71.66918649126293,186.48837209302326L72.77767587873251,186.48837209302326L73.85040754402563,186.48837209302326L74.9588969314952,186.48837209302326L76.06738631896476,186.48837209302326L77.06860253990502,186.48837209302326L78.17709192737459,186.48837209302326L79.24982359266771,186.48837209302326L80.35831298013728,186.48837209302326L81.4310446454304,186.48837209302326L82.53953403289998,186.48837209302326L83.64802342036953,186.48837209302326L84.72075508566267,186.48837209302326L85.82924447313222,186.48837209302326L86.90197613842537,186.48837209302326L88.01046552589492,186.48837209302326L89.11895491336449,186.48837209302326L90.12017113430474,186.48837209302326L91.2286605217743,186.48837209302326L92.30139218706744,186.48837209302326L93.409881574537,186.48837209302326L94.48261323983013,186.48837209302326L95.59110262729969,186.48837209302326L96.69959201476927,186.48837209302326L97.77232368006239,186.48837209302326L98.88081306753196,186.48837209302326L99.95354473282508,186.48837209302326L101.06203412029465,186.48837209302326L102.17052350776423,186.48837209302326L103.17173972870447,186.48837209302326L104.28022911617404,186.48837209302326L105.35296078146716,186.48837209302326L106.46145016893674,186.48837209302326L107.53418183422986,186.48837209302326L108.64267122169942,186.48837209302326L109.75116060916899,186.48837209302326L110.82389227446211,186.48837209302326L111.93238166193169,186.48837209302326L113.0051133272248,186.48837209302326L114.11360271469438,186.48837209302326L115.22209210216394,186.48837209302326L116.25906604528063,186.48837209302326L117.3675554327502,186.48837209302326L118.44028709804333,186.48837209302326L119.54877648551289,186.48837209302326L120.62150815080602,186.48837209302326L121.72999753827558,186.48837209302326L122.83848692574514,186.48837209302326L123.91121859103828,186.48837209302326L125.01970797850784,186.48837209302326L126.09243964380097,186.48837209302326L127.20092903127053,186.48837209302326L128.3094184187401,186.48837209302326L129.31063463968036,186.48837209302326L130.4191240271499,186.48837209302326L131.49185569244304,186.48837209302326L132.6003450799126,186.48837209302326L133.67307674520575,186.48837209302326L134.7815661326753,186.48837209302326L135.89005552014487,186.48837209302326L136.962787185438,186.48837209302326L138.07127657290758,186.48837209302326L139.14400823820068,186.48837209302326L140.25249762567026,186.48837209302326L141.36098701313983,186.48837209302326L142.36220323408008,186.48837209302326L143.47069262154966,186.48837209302326L144.54342428684276,186.48837209302326L145.65191367431237,186.48837209302326L146.72464533960547,186.48837209302326L147.83313472707505,186.48837209302326L148.9416241145446,186.48837209302326L150.01435577983773,186.48837209302326L151.1228451673073,186.48837209302326L152.19557683260044,186.48837209302326L153.30406622006998,186.48837209302326L154.41255560753956,186.48837209302326L155.41377182847984,186.48837209302326L156.52226121594938,186.48837209302326L157.59499288124252,186.48837209302326L158.70348226871207,186.48837209302326L159.7762139340052,186.48837209302326L160.88470332147477,186.48837209302326L161.99319270894432,186.48837209302326L163.06592437423745,186.48837209302326L164.17441376170703,186.48837209302326L165.24714542700016,186.48837209302326L166.3556348144697,186.48837209302326L167.46412420193928,186.48837209302326L168.50109814505598,186.48837209302326L169.60958753252555,186.48837209302326L170.68231919781866,186.48837209302326L171.79080858528823,186.48837209302326L172.86354025058134,186.48837209302326L173.97202963805094,186.48837209302326L175.0805190255205,186.48837209302326L176.15325069081362,186.48837209302326L177.26174007828317,186.48837209302326L178.33447174357633,186.48837209302326L179.44296113104588,186.48837209302326L180.55145051851545,186.48837209302326L181.5526667394557,186.48837209302326L182.66115612692528,186.48837209302326L183.7338877922184,186.48837209302326L184.84237717968796,186.48837209302326L185.9151088449811,186.48837209302326L187.02359823245064,186.48837209302326L188.1320876199202,186.48837209302326L189.20481928521335,186.48837209302326L190.3133086726829,186.48837209302326L191.38604033797603,186.48837209302326L192.4945297254456,186.48837209302326L193.60301911291518,186.48837209302326L194.60423533385543,186.48837209302326L195.71272472132497,186.48837209302326L196.7854563866181,186.48837209302326L197.89394577408768,186.48837209302326L198.96667743938082,186.48837209302326L200.07516682685036,186.48837209302326L201.18365621431997,186.48837209302326L202.25638787961307,186.48837209302326L203.36487726708265,186.48837209302326L204.43760893237575,186.48837209302326L205.54609831984536,186.48837209302326L206.6545877073149,186.48837209302326L207.65580392825515,186.48837209302326L208.76429331572473,186.48837209302326L209.83702498101783,186.48837209302326L210.94551436848744,186.48837209302326L212.01824603378054,186.48837209302326L213.12673542125012,186.48837209302326L214.23522480871966,186.48837209302326L215.30795647401283,186.48837209302326L216.41644586148237,186.48837209302326L217.4891775267755,186.48837209302326L218.59766691424505,186.48837209302326L219.70615630171463,186.48837209302326L220.74313024483132,186.48837209302326L221.8516196323009,186.48837209302326L222.924351297594,186.48837209302326L224.03284068506358,186.48837209302326L225.1055723503567,186.48837209302326L226.21406173782628,186.48837209302326L227.32255112529583,186.48837209302326L228.39528279058896,186.48837209302326L229.50377217805854,186.48837209302326L230.57650384335167,186.48837209302326L231.68499323082122,186.48837209302326L232.7934826182908,186.48837209302326L233.79469883923102,186.48837209302326L234.90318822670062,186.48837209302326L235.97591989199373,186.48837209302326L237.0844092794633,186.48837209302326L238.1571409447564,186.48837209302326L239.265630332226,186.48837209302326L240.37411971969556,186.48837209302326L241.4468513849887,186.48837209302326L242.55534077245827,186.48837209302326L243.6280724377514,186.48837209302326L244.73656182522095,186.48837209302326L245.8450512126905,186.48837209302326L246.84626743363077,186.48837209302326L247.95475682110035,186.48837209302326L249.02748848639348,186.48837209302326L250.13597787386303,186.48837209302326L251.20870953915616,186.48837209302326L252.31719892662574,186.48837209302326L253.42568831409528,186.48837209302326L254.49841997938842,186.48837209302326L255.60690936685796,186.48837209302326L256.6796410321511,186.48837209302326L257.78813041962064,186.48837209302326L258.89661980709025,186.48837209302326L259.8978360280305,186.48837209302326L261.0063254155001,186.48837209302326L262.0790570807932,186.48837209302326L263.1875464682628,186.48837209302326L264.2602781335559,186.48837209302326L265.36876752102546,186.48837209302326L266.477256908495,186.48837209302326L267.54998857378814,186.48837209302326L268.6584779612577,186.48837209302326L269.7312096265509,186.48837209302326L270.83969901402037,186.48837209302326L271.94818840149,186.48837209302326L272.98516234460664,186.48837209302326L274.09365173207624,186.48837209302326L275.1663833973694,186.48837209302326L276.2748727848389,186.48837209302326L277.34760445013205,186.48837209302326L278.45609383760166,186.48837209302326L279.56458322507115,186.48837209302326L280.63731489036434,186.48837209302326L281.7458042778339,186.48837209302326L282.818535943127,186.48837209302326L283.92702533059656,186.48837209302326L285.0355147180661,186.48837209302326L286.0367309390064,186.48837209302326L287.14522032647596,186.48837209302326L288.2179519917691,186.48837209302326L289.32644137923864,186.48837209302326L290.3991730445318,186.48837209302326L291.5076624320013,186.48837209302326L292.61615181947093,186.48837209302326L293.688883484764,186.48837209302326L294.7973728722336,186.48837209302326L295.8701045375267,186.48837209302326L296.9785939249963,186.48837209302326L298.0870833124659,186.48837209302326L299.0882995334061,186.48837209302326L300.1967889208757,186.48837209302326L301.2695205861688,186.48837209302326L302.37800997363837,186.48837209302326L303.4507416389315,186.48837209302326L304.55923102640105,186.48837209302326L305.6677204138706,186.48837209302326L306.7404520791638,186.48837209302326L307.8489414666333,186.48837209302326L308.92167313192647,186.48837209302326L310.030162519396,186.48837209302326L311.13865190686556,186.48837209302326L312.13986812780587,186.48837209302326L313.24835751527536,186.48837209302326L314.32108918056855,186.48837209302326L315.4295785680381,186.48837209302326L316.50231023333123,186.48837209302326L317.6107996208008,186.48837209302326L318.7192890082703,186.48837209302326L319.79202067356346,186.48837209302326L320.90051006103306,186.48837209302326L321.97324172632614,186.48837209302326L323.08173111379574,186.48837209302326L324.19022050126534,186.48837209302326L325.227194444382,186.48837209302326L326.33568383185155,186.48837209302326L327.4084154971447,186.48837209302326L328.51690488461423,186.48837209302326L329.5896365499074,186.48837209302326L330.6981259373769,186.48837209302326L331.8066153248465,186.48837209302326L332.8793469901396,186.48837209302326L333.9878363776092,186.48837209302326L335.06056804290233,186.48837209302326L336.1690574303719,186.48837209302326L337.2775468178415,186.48837209302326L338.27876303878173,186.48837209302326L339.3872524262513,186.48837209302326L340.4599840915444,186.48837209302326L341.56847347901396,186.48837209302326L342.6412051443071,186.48837209302326L343.7496945317767,186.48837209302326L344.85818391924624,186.48837209302326L345.9309155845394,186.48837209302326L347.039404972009,186.48837209302326L348.11213663730206,186.48837209302326L349.22062602477166,186.48837209302326L350.32911541224115,186.48837209302326L351.33033163318146,186.48837209302326L352.43882102065106,186.48837209302326L353.51155268594414,186.48837209302326L354.62004207341374,186.48837209302326L355.6927737387068,186.48837209302326L356.8012631261764,186.48837209302326L357.90975251364597,186.48837209302326L358.9824841789391,186.48837209302326L360.09097356640865,186.48837209302326L361.16370523170184,186.48837209302326L362.27219461917133,186.48837209302326L363.38068400664093,186.48837209302326L364.3819002275812,186.48837209302326L365.49038961505073,186.48837209302326L366.5631212803439,186.48837209302326L367.6716106678134,186.48837209302326L368.7443423331066,186.48837209302326L369.8528317205761,186.48837209302326L370.9613211080457,186.48837209302326L372.03405277333883,186.48837209302326L373.1425421608084,186.48837209302326L374.2152738261015,186.48837209302326L375.3237632135711,186.48837209302326L376.43225260104066,186.48837209302326L377.4692265441574,186.48837209302326L378.57771593162687,186.48837209302326L379.65044759692006,186.48837209302326L380.7589369843896,186.48837209302326L381.83166864968274,186.48837209302326L382.9401580371523,186.48837209302326L384.0486474246219,186.48837209302326L385.12137908991497,186.48837209302326L386.22986847738457,186.48837209302326L387.30260014267765,186.48837209302326L388.41108953014725,186.48837209302326L389.51957891761685,186.48837209302326L390.52079513855705,186.48837209302326L391.62928452602665,186.48837209302326L392.70201619131973,186.48837209302326L393.81050557878933,186.48837209302326L394.88323724408247,186.48837209302326L395.991726631552,186.48837209302326L397.1002160190216,186.48837209302326L398.17294768431475,186.48837209302326L399.2814370717843,186.48837209302326L400.35416873707743,186.48837209302326L401.462658124547,186.48837209302326L402.5711475120165,186.48837209302326L403.57236373295683,186.48837209302326L404.6808531204263,186.48837209302326L405.7535847857195,186.48837209302326L406.862074173189,186.48837209302326L407.9348058384822,186.48837209302326L409.04329522595174,186.48837209302326L410.1517846134213,186.48837209302326L411.2245162787144,186.48837209302326L412.333005666184,186.48837209302326L413.4057373314771,186.48837209302326L414.5142267189467,186.48837209302326L415.62271610641625,186.48837209302326L416.6239323273565,186.48837209302326L417.7324217148261,186.48837209302326L418.8051533801192,186.48837209302326L419.9136427675888,186.48837209302326L420.98637443288186,186.48837209302326L422.09486382035146,186.48837209302326L423.20335320782107,186.48837209302326L424.27608487311414,186.48837209302326L425.38457426058375,186.48837209302326L426.4573059258769,186.48837209302326L427.5657953133464,186.48837209302326L428.674284700816,186.48837209302326L429.71125864393264,186.48837209302326L430.81974803140224,186.48837209302326L431.8924796966954,186.48837209302326L433.0009690841649,186.48837209302326L434.07370074945806,186.48837209302326L435.18219013692766,186.48837209302326L436.2906795243972,186.48837209302326L437.36341118969034,186.48837209302326L438.4719005771599,186.48837209302326L439.544632242453,186.48837209302326L440.6531216299226,186.48837209302326L441.7616110173921,186.48837209302326L442.7628272383324,186.48837209302326L443.87131662580197,186.48837209302326L444.9440482910951,186.48837209302326L446.0525376785647,186.48837209302326L447.1252693438578,186.48837209302326L448.2337587313274,186.48837209302326L449.34224811879693,186.48837209302326L450.41497978409006,186.48837209302326L451.5234691715596,186.48837209302326L452.59620083685274,186.48837209302326L453.7046902243223,186.48837209302326L454.8131796117919,186.48837209302326L455.81439583273215,186.48837209302326L456.9228852202017,186.48837209302326L457.9956168854948,186.48837209302326L459.1041062729644,186.48837209302326L460.17683793825756,186.48837209302326L461.28532732572705,186.48837209302326L462.39381671319666,186.48837209302326L463.4665483784898,186.48837209302326L464.57503776595934,186.48837209302326L465.64776943125247,186.48837209302326L466.756258818722,186.48837209302326L467.8647482061916,186.48837209302326L468.86596442713187,186.48837209302326L469.9744538146014,186.48837209302326L471.04718547989455,186.48837209302326L472.1556748673641,186.48837209302326L473.22840653265723,186.48837209302326L474.33689592012684,186.48837209302326L475.4453853075964,186.48837209302326L476.5181169728895,186.48837209302326L477.6266063603591,186.48837209302326L478.6993380256522,186.48837209302326L479.8078274131218,186.48837209302326L480.9163168005913,186.48837209302326L481.953290743708,186.48837209302326L483.0617801311776,186.48837209302326L484.1345117964707,186.48837209302326L485.2430011839403,186.48837209302326L486.3157328492334,186.48837209302326L487.424222236703,186.48837209302326L488.5327116241726,186.48837209302326L489.60544328946565,186.48837209302326L490.71393267693526,186.48837209302326L491.7866643422284,186.48837209302326L492.89515372969794,186.48837209302326L494.0036431171675,186.48837209302326L495.00485933810774,186.48837209302326L496.1133487255773,186.48837209302326L497.1860803908705,186.48837209302326L498.29456977833996,186.48837209302326L499.36730144363315,186.48837209302326L500.4757908311027,186.48837209302326L501.58428021857225,186.48837209302326L502.6570118838654,186.48837209302326L503.7655012713349,186.48837209302326L504.83823293662806,186.48837209302326L505.94672232409766,186.48837209302326L507.0552117115672,186.48837209302326L508.05642793250746,186.48837209302326L509.164917319977,186.48837209302326L510.23764898527014,186.48837209302326L510.23764898527014,104.54651162790697L509.164917319977,115.84883720930232L508.05642793250746,118.67441860465115L507.0552117115672,124.32558139534883L505.94672232409766,141.27906976744185L504.83823293662806,144.1046511627907L503.7655012713349,144.1046511627907L502.6570118838654,152.5813953488372L501.58428021857225,161.0581395348837L500.4757908311027,161.0581395348837L499.36730144363315,166.70930232558138L498.29456977833996,169.53488372093022L497.1860803908705,169.53488372093022L496.1133487255773,178.01162790697674L495.00485933810774,192.13953488372093L494.0036431171675,200.61627906976744L492.89515372969794,200.61627906976744L491.7866643422284,209.09302325581396L490.71393267693526,206.2674418604651L489.60544328946565,203.4418604651163L488.5327116241726,209.09302325581396L487.424222236703,211.91860465116278L486.3157328492334,211.91860465116278L485.2430011839403,223.22093023255815L484.1345117964707,223.22093023255815L483.0617801311776,217.56976744186048L481.953290743708,200.61627906976744L480.9163168005913,189.31395348837208L479.8078274131218,180.83720930232556L478.6993380256522,180.83720930232556L477.6266063603591,189.31395348837208L476.5181169728895,194.96511627906978L475.4453853075964,183.6627906976744L474.33689592012684,178.01162790697674L473.22840653265723,178.01162790697674L472.1556748673641,169.53488372093022L471.04718547989455,169.53488372093022L469.9744538146014,166.70930232558138L468.86596442713187,166.70930232558138L467.8647482061916,169.53488372093022L466.756258818722,169.53488372093022L465.64776943125247,166.70930232558138L464.57503776595934,161.0581395348837L463.4665483784898,155.40697674418604L462.39381671319666,158.2325581395349L461.28532732572705,152.5813953488372L460.17683793825756,152.5813953488372L459.1041062729644,155.40697674418604L457.9956168854948,158.2325581395349L456.9228852202017,163.88372093023258L455.81439583273215,163.88372093023258L454.8131796117919,169.53488372093022L453.7046902243223,166.70930232558138L452.59620083685274,163.88372093023258L451.5234691715596,163.88372093023258L450.41497978409006,166.70930232558138L449.34224811879693,166.70930232558138L448.2337587313274,172.36046511627904L447.1252693438578,178.01162790697674L446.0525376785647,180.83720930232556L444.9440482910951,172.36046511627904L443.87131662580197,175.18604651162792L442.7628272383324,169.53488372093022L441.7616110173921,169.53488372093022L440.6531216299226,178.01162790697674L439.544632242453,186.48837209302326L438.4719005771599,194.96511627906978L437.36341118969034,192.13953488372093L436.2906795243972,192.13953488372093L435.18219013692766,189.31395348837208L434.07370074945806,192.13953488372093L433.0009690841649,197.7906976744186L431.8924796966954,197.7906976744186L430.81974803140224,197.7906976744186L429.71125864393264,211.91860465116278L428.674284700816,209.09302325581396L427.5657953133464,223.22093023255815L426.4573059258769,223.22093023255815L425.38457426058375,226.04651162790697L424.27608487311414,226.04651162790697L423.20335320782107,226.04651162790697L422.09486382035146,226.04651162790697L420.98637443288186,223.22093023255815L419.9136427675888,214.74418604651163L418.8051533801192,220.3953488372093L417.7324217148261,217.56976744186048L416.6239323273565,211.91860465116278L415.62271610641625,209.09302325581396L414.5142267189467,200.61627906976744L413.4057373314771,194.96511627906978L412.333005666184,189.31395348837208L411.2245162787144,186.48837209302326L410.1517846134213,189.31395348837208L409.04329522595174,183.6627906976744L407.9348058384822,186.48837209302326L406.862074173189,186.48837209302326L405.7535847857195,180.83720930232556L404.6808531204263,186.48837209302326L403.57236373295683,186.48837209302326L402.5711475120165,189.31395348837208L401.462658124547,183.6627906976744L400.35416873707743,183.6627906976744L399.2814370717843,183.6627906976744L398.17294768431475,194.96511627906978L397.1002160190216,189.31395348837208L395.991726631552,186.48837209302326L394.88323724408247,186.48837209302326L393.81050557878933,189.31395348837208L392.70201619131973,200.61627906976744L391.62928452602665,203.4418604651163L390.52079513855705,203.4418604651163L389.51957891761685,194.96511627906978L388.41108953014725,194.96511627906978L387.30260014267765,197.7906976744186L386.22986847738457,197.7906976744186L385.12137908991497,192.13953488372093L384.0486474246219,197.7906976744186L382.9401580371523,200.61627906976744L381.83166864968274,206.2674418604651L380.7589369843896,217.56976744186048L379.65044759692006,214.74418604651163L378.57771593162687,214.74418604651163L377.4692265441574,214.74418604651163L376.43225260104066,211.91860465116278L375.3237632135711,209.09302325581396L374.2152738261015,206.2674418604651L373.1425421608084,200.61627906976744L372.03405277333883,189.31395348837208L370.9613211080457,172.36046511627904L369.8528317205761,180.83720930232556L368.7443423331066,172.36046511627904L367.6716106678134,169.53488372093022L366.5631212803439,175.18604651162792L365.49038961505073,178.01162790697674L364.3819002275812,158.2325581395349L363.38068400664093,172.36046511627904L362.27219461917133,178.01162790697674L361.16370523170184,172.36046511627904L360.09097356640865,180.83720930232556L358.9824841789391,180.83720930232556L357.90975251364597,178.01162790697674L356.8012631261764,178.01162790697674L355.6927737387068,175.18604651162792L354.62004207341374,172.36046511627904L353.51155268594414,155.40697674418604L352.43882102065106,146.93023255813955L351.33033163318146,146.93023255813955L350.32911541224115,161.0581395348837L349.22062602477166,158.2325581395349L348.11213663730206,178.01162790697674L347.039404972009,186.48837209302326L345.9309155845394,209.09302325581396L344.85818391924624,211.91860465116278L343.7496945317767,209.09302325581396L342.6412051443071,220.3953488372093L341.56847347901396,214.74418604651163L340.4599840915444,214.74418604651163L339.3872524262513,194.96511627906978L338.27876303878173,197.7906976744186L337.2775468178415,180.83720930232556L336.1690574303719,183.6627906976744L335.06056804290233,166.70930232558138L333.9878363776092,144.1046511627907L332.8793469901396,113.02325581395351L331.8066153248465,104.54651162790697L330.6981259373769,104.54651162790697L329.5896365499074,98.89534883720933L328.51690488461423,104.54651162790697L327.4084154971447,104.54651162790697L326.33568383185155,121.5L325.227194444382,113.02325581395351L324.19022050126534,118.67441860465115L323.08173111379574,118.67441860465115L321.97324172632614,129.97674418604652L320.90051006103306,135.62790697674419L319.79202067356346,149.75581395348837L318.7192890082703,166.70930232558138L317.6107996208008,175.18604651162792L316.50231023333123,166.70930232558138L315.4295785680381,169.53488372093022L314.32108918056855,172.36046511627904L313.24835751527536,172.36046511627904L312.13986812780587,180.83720930232556L311.13865190686556,186.48837209302326L310.030162519396,183.6627906976744L308.92167313192647,169.53488372093022L307.8489414666333,172.36046511627904L306.7404520791638,178.01162790697674L305.6677204138706,163.88372093023258L304.55923102640105,144.1046511627907L303.4507416389315,146.93023255813955L302.37800997363837,141.27906976744185L301.2695205861688,146.93023255813955L300.1967889208757,155.40697674418604L299.0882995334061,158.2325581395349L298.0870833124659,146.93023255813955L296.9785939249963,149.75581395348837L295.8701045375267,158.2325581395349L294.7973728722336,158.2325581395349L293.688883484764,149.75581395348837L292.61615181947093,146.93023255813955L291.5076624320013,158.2325581395349L290.3991730445318,152.5813953488372L289.32644137923864,166.70930232558138L288.2179519917691,155.40697674418604L287.14522032647596,146.93023255813955L286.0367309390064,146.93023255813955L285.0355147180661,146.93023255813955L283.92702533059656,152.5813953488372L282.818535943127,149.75581395348837L281.7458042778339,144.1046511627907L280.63731489036434,149.75581395348837L279.56458322507115,161.0581395348837L278.45609383760166,158.2325581395349L277.34760445013205,161.0581395348837L276.2748727848389,155.40697674418604L275.1663833973694,161.0581395348837L274.09365173207624,172.36046511627904L272.98516234460664,189.31395348837208L271.94818840149,183.6627906976744L270.83969901402037,180.83720930232556L269.7312096265509,169.53488372093022L268.6584779612577,172.36046511627904L267.54998857378814,172.36046511627904L266.477256908495,172.36046511627904L265.36876752102546,172.36046511627904L264.2602781335559,178.01162790697674L263.1875464682628,172.36046511627904L262.0790570807932,175.18604651162792L261.0063254155001,166.70930232558138L259.8978360280305,149.75581395348837L258.89661980709025,161.0581395348837L257.78813041962064,163.88372093023258L256.6796410321511,161.0581395348837L255.60690936685796,161.0581395348837L254.49841997938842,152.5813953488372L253.42568831409528,172.36046511627904L252.31719892662574,172.36046511627904L251.20870953915616,189.31395348837208L250.13597787386303,178.01162790697674L249.02748848639348,169.53488372093022L247.95475682110035,155.40697674418604L246.84626743363077,172.36046511627904L245.8450512126905,166.70930232558138L244.73656182522095,172.36046511627904L243.6280724377514,178.01162790697674L242.55534077245827,178.01162790697674L241.4468513849887,169.53488372093022L240.37411971969556,166.70930232558138L239.265630332226,155.40697674418604L238.1571409447564,146.93023255813955L237.0844092794633,141.27906976744185L235.97591989199373,135.62790697674419L234.90318822670062,152.5813953488372L233.79469883923102,158.2325581395349L232.7934826182908,163.88372093023258L231.68499323082122,149.75581395348837L230.57650384335167,144.1046511627907L229.50377217805854,132.80232558139534L228.39528279058896,149.75581395348837L227.32255112529583,146.93023255813955L226.21406173782628,155.40697674418604L225.1055723503567,132.80232558139534L224.03284068506358,135.62790697674419L222.924351297594,141.27906976744185L221.8516196323009,146.93023255813955L220.74313024483132,144.1046511627907L219.70615630171463,141.27906976744185L218.59766691424505,141.27906976744185L217.4891775267755,138.45348837209303L216.41644586148237,149.75581395348837L215.30795647401283,152.5813953488372L214.23522480871966,152.5813953488372L213.12673542125012,161.0581395348837L212.01824603378054,166.70930232558138L210.94551436848744,169.53488372093022L209.83702498101783,169.53488372093022L208.76429331572473,169.53488372093022L207.65580392825515,172.36046511627904L206.6545877073149,178.01162790697674L205.54609831984536,183.6627906976744L204.43760893237575,192.13953488372093L203.36487726708265,189.31395348837208L202.25638787961307,186.48837209302326L201.18365621431997,183.6627906976744L200.07516682685036,183.6627906976744L198.96667743938082,183.6627906976744L197.89394577408768,183.6627906976744L196.7854563866181,183.6627906976744L195.71272472132497,186.48837209302326L194.60423533385543,186.48837209302326L193.60301911291518,186.48837209302326L192.4945297254456,186.48837209302326L191.38604033797603,175.18604651162792L190.3133086726829,175.18604651162792L189.20481928521335,178.01162790697674L188.1320876199202,175.18604651162792L187.02359823245064,172.36046511627904L185.9151088449811,172.36046511627904L184.84237717968796,172.36046511627904L183.7338877922184,169.53488372093022L182.66115612692528,172.36046511627904L181.5526667394557,172.36046511627904L180.55145051851545,163.88372093023258L179.44296113104588,163.88372093023258L178.33447174357633,163.88372093023258L177.26174007828317,166.70930232558138L176.15325069081362,163.88372093023258L175.0805190255205,169.53488372093022L173.97202963805094,169.53488372093022L172.86354025058134,166.70930232558138L171.79080858528823,166.70930232558138L170.68231919781866,166.70930232558138L169.60958753252555,161.0581395348837L168.50109814505598,161.0581395348837L167.46412420193928,163.88372093023258L166.3556348144697,144.1046511627907L165.24714542700016,132.80232558139534L164.17441376170703,132.80232558139534L163.06592437423745,129.97674418604652L161.99319270894432,129.97674418604652L160.88470332147477,129.97674418604652L159.7762139340052,129.97674418604652L158.70348226871207,127.15116279069768L157.59499288124252,129.97674418604652L156.52226121594938,141.27906976744185L155.41377182847984,141.27906976744185L154.41255560753956,144.1046511627907L153.30406622006998,158.2325581395349L152.19557683260044,175.18604651162792L151.1228451673073,169.53488372093022L150.01435577983773,175.18604651162792L148.9416241145446,169.53488372093022L147.83313472707505,172.36046511627904L146.72464533960547,169.53488372093022L145.65191367431237,172.36046511627904L144.54342428684276,175.18604651162792L143.47069262154966,158.2325581395349L142.36220323408008,149.75581395348837L141.36098701313983,135.62790697674419L140.25249762567026,127.15116279069768L139.14400823820068,115.84883720930232L138.07127657290758,124.32558139534883L136.962787185438,90.41860465116275L135.89005552014487,90.41860465116275L134.7815661326753,84.76744186046514L133.67307674520575,90.41860465116275L132.6003450799126,98.89534883720933L131.49185569244304,84.76744186046514L130.4191240271499,79.11627906976744L129.31063463968036,84.76744186046514L128.3094184187401,90.41860465116275L127.20092903127053,87.59302325581396L126.09243964380097,90.41860465116275L125.01970797850784,93.24418604651163L123.91121859103828,87.59302325581396L122.83848692574514,87.59302325581396L121.72999753827558,84.76744186046514L120.62150815080602,79.11627906976744L119.54877648551289,67.81395348837208L118.44028709804333,67.81395348837208L117.3675554327502,50.86046511627907L116.25906604528063,48.034883720930196L115.22209210216394,56.51162790697674L114.11360271469438,48.034883720930196L113.0051133272248,39.55813953488371L111.93238166193169,31.08139534883722L110.82389227446211,42.383720930232556L109.75116060916899,25.430232558139522L108.64267122169942,16.953488372093034L107.53418183422986,0L106.46145016893674,0L105.35296078146716,8.47674418604646L104.28022911617404,19.779069767441854L103.17173972870447,19.779069767441854L102.17052350776423,11.302325581395365L101.06203412029465,31.08139534883722L99.95354473282508,36.73255813953486L98.88081306753196,14.127906976744185L97.77232368006239,5.6511627906976685L96.69959201476927,14.127906976744185L95.59110262729969,14.127906976744185L94.48261323983013,36.73255813953486L93.409881574537,45.209302325581405L92.30139218706744,42.383720930232556L91.2286605217743,56.51162790697674L90.12017113430474,45.209302325581405L89.11895491336449,48.034883720930196L88.01046552589492,42.383720930232556L86.90197613842537,45.209302325581405L85.82924447313222,62.16279069767438L84.72075508566267,84.76744186046514L83.64802342036953,90.41860465116275L82.53953403289998,101.72093023255812L81.4310446454304,101.72093023255812L80.35831298013728,101.72093023255812L79.24982359266771,101.72093023255812L78.17709192737459,113.02325581395351L77.06860253990502,121.5L76.06738631896476,121.5L74.9588969314952,124.32558139534883L73.85040754402563,132.80232558139534L72.77767587873251,135.62790697674419L71.66918649126293,135.62790697674419L70.59645482596981,129.97674418604652L69.48796543850024,135.62790697674419L68.37947605103068,135.62790697674419L67.30674438573755,127.15116279069768L66.19825499826798,124.32558139534883L65.12552333297485,132.80232558139534L64.01703394550529,132.80232558139534L62.9800600023886,135.62790697674419L61.87157061491904,141.27906976744185L60.76308122744947,132.80232558139534L59.69034956215634,127.15116279069768L58.581860174686774,129.97674418604652L57.50912850939365,141.27906976744185L56.40063912192408,129.97674418604652L55.29214973445452,135.62790697674419L54.219418069161385,149.75581395348837L53.110928681691824,161.0581395348837L52.03819701639869,152.5813953488372L50.92970762892913,158.2325581395349L49.92849140798888,158.2325581395349L48.82000202051931,166.70930232558138L47.71151263304975,186.48837209302326L46.63878096775662,189.31395348837208L45.530291580287056,175.18604651162792L44.45755991499392,169.53488372093022L43.34907052752436,166.70930232558138L42.24058114005479,172.36046511627904L41.16784947476167,163.88372093023258L40.0593600872921,166.70930232558138L38.98662842199897,158.2325581395349L37.878139034529404,161.0581395348837L36.876922813589154,149.75581395348837L35.768433426119586,124.32558139534883L34.65994403865002,96.06976744186045L33.58721237335689,98.89534883720933L32.47872298588732,101.72093023255812L31.405991320594193,93.24418604651163L30.29750193312463,101.72093023255812L29.189012545655064,90.41860465116275L28.116280880361934,90.41860465116275L27.00779149289237,79.11627906976744L25.93505982759924,84.76744186046514L24.826570440129675,76.29069767441857L23.82535421918942,73.46511627906978L22.716864831719857,87.59302325581396L21.60837544425029,104.54651162790697L20.535643778957162,101.72093023255812L19.427154391487598,98.89534883720933L18.35442272619447,110.19767441860463L17.245933338724907,104.54651162790697L16.13744395125534,107.37209302325581L15.06471228596221,107.37209302325581L13.956222898492644,104.54651162790697L12.883491233199516,96.06976744186045L11.77500184572995,90.41860465116275L10.73802790261326,104.54651162790697L9.629538515143693,110.19767441860463Z" style="mix-blend-mode: normal; fill: rgb(204, 204, 204); opacity: 0.3;"/><g id="lines-svg"><g id="values-svg"><path d="M9.629538515143693,110.19767441860463L10.73802790261326,104.54651162790697L11.77500184572995,90.41860465116275L12.883491233199516,96.06976744186045L13.956222898492644,104.54651162790697L15.06471228596221,107.37209302325581L16.13744395125534,107.37209302325581L17.245933338724907,104.54651162790697L18.35442272619447,110.19767441860463L19.427154391487598,98.89534883720933L20.535643778957162,101.72093023255812L21.60837544425029,104.54651162790697L22.716864831719857,87.59302325581396L23.82535421918942,73.46511627906978L24.826570440129675,76.29069767441857L25.93505982759924,84.76744186046514L27.00779149289237,79.11627906976744L28.116280880361934,90.41860465116275L29.189012545655064,90.41860465116275L30.29750193312463,101.72093023255812L31.405991320594193,93.24418604651163L32.47872298588732,101.72093023255812L33.58721237335689,98.89534883720933L34.65994403865002,96.06976744186045L35.768433426119586,124.32558139534883L36.876922813589154,149.75581395348837L37.878139034529404,161.0581395348837L38.98662842199897,158.2325581395349L40.0593600872921,166.70930232558138L41.16784947476167,163.88372093023258L42.24058114005479,172.36046511627904L43.34907052752436,166.70930232558138L44.45755991499392,169.53488372093022L45.530291580287056,175.18604651162792L46.63878096775662,189.31395348837208L47.71151263304975,186.48837209302326L48.82000202051931,166.70930232558138L49.92849140798888,158.2325581395349L50.92970762892913,158.2325581395349L52.03819701639869,152.5813953488372L53.110928681691824,161.0581395348837L54.219418069161385,149.75581395348837L55.29214973445452,135.62790697674419L56.40063912192408,129.97674418604652L57.50912850939365,141.27906976744185L58.581860174686774,129.97674418604652L59.69034956215634,127.15116279069768L60.76308122744947,132.80232558139534L61.87157061491904,141.27906976744185L62.9800600023886,135.62790697674419L64.01703394550529,132.80232558139534L65.12552333297485,132.80232558139534L66.19825499826798,124.32558139534883L67.30674438573755,127.15116279069768L68.37947605103068,135.62790697674419L69.48796543850024,135.62790697674419L70.59645482596981,129.97674418604652L71.66918649126293,135.62790697674419L72.77767587873251,135.62790697674419L73.85040754402563,132.80232558139534L74.9588969314952,124.32558139534883L76.06738631896476,121.5L77.06860253990502,121.5L78.17709192737459,113.02325581395351L79.24982359266771,101.72093023255812L80.35831298013728,101.72093023255812L81.4310446454304,101.72093023255812L82.53953403289998,101.72093023255812L83.64802342036953,90.41860465116275L84.72075508566267,84.76744186046514L85.82924447313222,62.16279069767438L86.90197613842537,45.209302325581405L88.01046552589492,42.383720930232556L89.11895491336449,48.034883720930196L90.12017113430474,45.209302325581405L91.2286605217743,56.51162790697674L92.30139218706744,42.383720930232556L93.409881574537,45.209302325581405L94.48261323983013,36.73255813953486L95.59110262729969,14.127906976744185L96.69959201476927,14.127906976744185L97.77232368006239,5.6511627906976685L98.88081306753196,14.127906976744185L99.95354473282508,36.73255813953486L101.06203412029465,31.08139534883722L102.17052350776423,11.302325581395365L103.17173972870447,19.779069767441854L104.28022911617404,19.779069767441854L105.35296078146716,8.47674418604646L106.46145016893674,0L107.53418183422986,0L108.64267122169942,16.953488372093034L109.75116060916899,25.430232558139522L110.82389227446211,42.383720930232556L111.93238166193169,31.08139534883722L113.0051133272248,39.55813953488371L114.11360271469438,48.034883720930196L115.22209210216394,56.51162790697674L116.25906604528063,48.034883720930196L117.3675554327502,50.86046511627907L118.44028709804333,67.81395348837208L119.54877648551289,67.81395348837208L120.62150815080602,79.11627906976744L121.72999753827558,84.76744186046514L122.83848692574514,87.59302325581396L123.91121859103828,87.59302325581396L125.01970797850784,93.24418604651163L126.09243964380097,90.41860465116275L127.20092903127053,87.59302325581396L128.3094184187401,90.41860465116275L129.31063463968036,84.76744186046514L130.4191240271499,79.11627906976744L131.49185569244304,84.76744186046514L132.6003450799126,98.89534883720933L133.67307674520575,90.41860465116275L134.7815661326753,84.76744186046514L135.89005552014487,90.41860465116275L136.962787185438,90.41860465116275L138.07127657290758,124.32558139534883L139.14400823820068,115.84883720930232L140.25249762567026,127.15116279069768L141.36098701313983,135.62790697674419L142.36220323408008,149.75581395348837L143.47069262154966,158.2325581395349L144.54342428684276,175.18604651162792L145.65191367431237,172.36046511627904L146.72464533960547,169.53488372093022L147.83313472707505,172.36046511627904L148.9416241145446,169.53488372093022L150.01435577983773,175.18604651162792L151.1228451673073,169.53488372093022L152.19557683260044,175.18604651162792L153.30406622006998,158.2325581395349L154.41255560753956,144.1046511627907L155.41377182847984,141.27906976744185L156.52226121594938,141.27906976744185L157.59499288124252,129.97674418604652L158.70348226871207,127.15116279069768L159.7762139340052,129.97674418604652L160.88470332147477,129.97674418604652L161.99319270894432,129.97674418604652L163.06592437423745,129.97674418604652L164.17441376170703,132.80232558139534L165.24714542700016,132.80232558139534L166.3556348144697,144.1046511627907L167.46412420193928,163.88372093023258L168.50109814505598,161.0581395348837L169.60958753252555,161.0581395348837L170.68231919781866,166.70930232558138L171.79080858528823,166.70930232558138L172.86354025058134,166.70930232558138L173.97202963805094,169.53488372093022L175.0805190255205,169.53488372093022L176.15325069081362,163.88372093023258L177.26174007828317,166.70930232558138L178.33447174357633,163.88372093023258L179.44296113104588,163.88372093023258L180.55145051851545,163.88372093023258L181.5526667394557,172.36046511627904L182.66115612692528,172.36046511627904L183.7338877922184,169.53488372093022L184.84237717968796,172.36046511627904L185.9151088449811,172.36046511627904L187.02359823245064,172.36046511627904L188.1320876199202,175.18604651162792L189.20481928521335,178.01162790697674L190.3133086726829,175.18604651162792L191.38604033797603,175.18604651162792L192.4945297254456,186.48837209302326L193.60301911291518,186.48837209302326L194.60423533385543,186.48837209302326L195.71272472132497,186.48837209302326L196.7854563866181,183.6627906976744L197.89394577408768,183.6627906976744L198.96667743938082,183.6627906976744L200.07516682685036,183.6627906976744L201.18365621431997,183.6627906976744L202.25638787961307,186.48837209302326L203.36487726708265,189.31395348837208L204.43760893237575,192.13953488372093L205.54609831984536,183.6627906976744L206.6545877073149,178.01162790697674L207.65580392825515,172.36046511627904L208.76429331572473,169.53488372093022L209.83702498101783,169.53488372093022L210.94551436848744,169.53488372093022L212.01824603378054,166.70930232558138L213.12673542125012,161.0581395348837L214.23522480871966,152.5813953488372L215.30795647401283,152.5813953488372L216.41644586148237,149.75581395348837L217.4891775267755,138.45348837209303L218.59766691424505,141.27906976744185L219.70615630171463,141.27906976744185L220.74313024483132,144.1046511627907L221.8516196323009,146.93023255813955L222.924351297594,141.27906976744185L224.03284068506358,135.62790697674419L225.1055723503567,132.80232558139534L226.21406173782628,155.40697674418604L227.32255112529583,146.93023255813955L228.39528279058896,149.75581395348837L229.50377217805854,132.80232558139534L230.57650384335167,144.1046511627907L231.68499323082122,149.75581395348837L232.7934826182908,163.88372093023258L233.79469883923102,158.2325581395349L234.90318822670062,152.5813953488372L235.97591989199373,135.62790697674419L237.0844092794633,141.27906976744185L238.1571409447564,146.93023255813955L239.265630332226,155.40697674418604L240.37411971969556,166.70930232558138L241.4468513849887,169.53488372093022L242.55534077245827,178.01162790697674L243.6280724377514,178.01162790697674L244.73656182522095,172.36046511627904L245.8450512126905,166.70930232558138L246.84626743363077,172.36046511627904L247.95475682110035,155.40697674418604L249.02748848639348,169.53488372093022L250.13597787386303,178.01162790697674L251.20870953915616,189.31395348837208L252.31719892662574,172.36046511627904L253.42568831409528,172.36046511627904L254.49841997938842,152.5813953488372L255.60690936685796,161.0581395348837L256.6796410321511,161.0581395348837L257.78813041962064,163.88372093023258L258.89661980709025,161.0581395348837L259.8978360280305,149.75581395348837L261.0063254155001,166.70930232558138L262.0790570807932,175.18604651162792L263.1875464682628,172.36046511627904L264.2602781335559,178.01162790697674L265.36876752102546,172.36046511627904L266.477256908495,172.36046511627904L267.54998857378814,172.36046511627904L268.6584779612577,172.36046511627904L269.7312096265509,169.53488372093022L270.83969901402037,180.83720930232556L271.94818840149,183.6627906976744L272.98516234460664,189.31395348837208L274.09365173207624,172.36046511627904L275.1663833973694,161.0581395348837L276.2748727848389,155.40697674418604L277.34760445013205,161.0581395348837L278.45609383760166,158.2325581395349L279.56458322507115,161.0581395348837L280.63731489036434,149.75581395348837L281.7458042778339,144.1046511627907L282.818535943127,149.75581395348837L283.92702533059656,152.5813953488372L285.0355147180661,146.93023255813955L286.0367309390064,146.93023255813955L287.14522032647596,146.93023255813955L288.2179519917691,155.40697674418604L289.32644137923864,166.70930232558138L290.3991730445318,152.5813953488372L291.5076624320013,158.2325581395349L292.61615181947093,146.93023255813955L293.688883484764,149.75581395348837L294.7973728722336,158.2325581395349L295.8701045375267,158.2325581395349L296.9785939249963,149.75581395348837L298.0870833124659,146.93023255813955L299.0882995334061,158.2325581395349L300.1967889208757,155.40697674418604L301.2695205861688,146.93023255813955L302.37800997363837,141.27906976744185L303.4507416389315,146.93023255813955L304.55923102640105,144.1046511627907L305.6677204138706,163.88372093023258L306.7404520791638,178.01162790697674L307.8489414666333,172.36046511627904L308.92167313192647,169.53488372093022L310.030162519396,183.6627906976744L311.13865190686556,186.48837209302326L312.13986812780587,180.83720930232556L313.24835751527536,172.36046511627904L314.32108918056855,172.36046511627904L315.4295785680381,169.53488372093022L316.50231023333123,166.70930232558138L317.6107996208008,175.18604651162792L318.7192890082703,166.70930232558138L319.79202067356346,149.75581395348837L320.90051006103306,135.62790697674419L321.97324172632614,129.97674418604652L323.08173111379574,118.67441860465115L324.19022050126534,118.67441860465115L325.227194444382,113.02325581395351L326.33568383185155,121.5L327.4084154971447,104.54651162790697L328.51690488461423,104.54651162790697L329.5896365499074,98.89534883720933L330.6981259373769,104.54651162790697L331.8066153248465,104.54651162790697L332.8793469901396,113.02325581395351L333.9878363776092,144.1046511627907L335.06056804290233,166.70930232558138L336.1690574303719,183.6627906976744L337.2775468178415,180.83720930232556L338.27876303878173,197.7906976744186L339.3872524262513,194.96511627906978L340.4599840915444,214.74418604651163L341.56847347901396,214.74418604651163L342.6412051443071,220.3953488372093L343.7496945317767,209.09302325581396L344.85818391924624,211.91860465116278L345.9309155845394,209.09302325581396L347.039404972009,186.48837209302326L348.11213663730206,178.01162790697674L349.22062602477166,158.2325581395349L350.32911541224115,161.0581395348837L351.33033163318146,146.93023255813955L352.43882102065106,146.93023255813955L353.51155268594414,155.40697674418604L354.62004207341374,172.36046511627904L355.6927737387068,175.18604651162792L356.8012631261764,178.01162790697674L357.90975251364597,178.01162790697674L358.9824841789391,180.83720930232556L360.09097356640865,180.83720930232556L361.16370523170184,172.36046511627904L362.27219461917133,178.01162790697674L363.38068400664093,172.36046511627904L364.3819002275812,158.2325581395349L365.49038961505073,178.01162790697674L366.5631212803439,175.18604651162792L367.6716106678134,169.53488372093022L368.7443423331066,172.36046511627904L369.8528317205761,180.83720930232556L370.9613211080457,172.36046511627904L372.03405277333883,189.31395348837208L373.1425421608084,200.61627906976744L374.2152738261015,206.2674418604651L375.3237632135711,209.09302325581396L376.43225260104066,211.91860465116278L377.4692265441574,214.74418604651163L378.57771593162687,214.74418604651163L379.65044759692006,214.74418604651163L380.7589369843896,217.56976744186048L381.83166864968274,206.2674418604651L382.9401580371523,200.61627906976744L384.0486474246219,197.7906976744186L385.12137908991497,192.13953488372093L386.22986847738457,197.7906976744186L387.30260014267765,197.7906976744186L388.41108953014725,194.96511627906978L389.51957891761685,194.96511627906978L390.52079513855705,203.4418604651163L391.62928452602665,203.4418604651163L392.70201619131973,200.61627906976744L393.81050557878933,189.31395348837208L394.88323724408247,186.48837209302326L395.991726631552,186.48837209302326L397.1002160190216,189.31395348837208L398.17294768431475,194.96511627906978L399.2814370717843,183.6627906976744L400.35416873707743,183.6627906976744L401.462658124547,183.6627906976744L402.5711475120165,189.31395348837208L403.57236373295683,186.48837209302326L404.6808531204263,186.48837209302326L405.7535847857195,180.83720930232556L406.862074173189,186.48837209302326L407.9348058384822,186.48837209302326L409.04329522595174,183.6627906976744L410.1517846134213,189.31395348837208L411.2245162787144,186.48837209302326L412.333005666184,189.31395348837208L413.4057373314771,194.96511627906978L414.5142267189467,200.61627906976744L415.62271610641625,209.09302325581396L416.6239323273565,211.91860465116278L417.7324217148261,217.56976744186048L418.8051533801192,220.3953488372093L419.9136427675888,214.74418604651163L420.98637443288186,223.22093023255815L422.09486382035146,226.04651162790697L423.20335320782107,226.04651162790697L424.27608487311414,226.04651162790697L425.38457426058375,226.04651162790697L426.4573059258769,223.22093023255815L427.5657953133464,223.22093023255815L428.674284700816,209.09302325581396L429.71125864393264,211.91860465116278L430.81974803140224,197.7906976744186L431.8924796966954,197.7906976744186L433.0009690841649,197.7906976744186L434.07370074945806,192.13953488372093L435.18219013692766,189.31395348837208L436.2906795243972,192.13953488372093L437.36341118969034,192.13953488372093L438.4719005771599,194.96511627906978L439.544632242453,186.48837209302326L440.6531216299226,178.01162790697674L441.7616110173921,169.53488372093022L442.7628272383324,169.53488372093022L443.87131662580197,175.18604651162792L444.9440482910951,172.36046511627904L446.0525376785647,180.83720930232556L447.1252693438578,178.01162790697674L448.2337587313274,172.36046511627904L449.34224811879693,166.70930232558138L450.41497978409006,166.70930232558138L451.5234691715596,163.88372093023258L452.59620083685274,163.88372093023258L453.7046902243223,166.70930232558138L454.8131796117919,169.53488372093022L455.81439583273215,163.88372093023258L456.9228852202017,163.88372093023258L457.9956168854948,158.2325581395349L459.1041062729644,155.40697674418604L460.17683793825756,152.5813953488372L461.28532732572705,152.5813953488372L462.39381671319666,158.2325581395349L463.4665483784898,155.40697674418604L464.57503776595934,161.0581395348837L465.64776943125247,166.70930232558138L466.756258818722,169.53488372093022L467.8647482061916,169.53488372093022L468.86596442713187,166.70930232558138L469.9744538146014,166.70930232558138L471.04718547989455,169.53488372093022L472.1556748673641,169.53488372093022L473.22840653265723,178.01162790697674L474.33689592012684,178.01162790697674L475.4453853075964,183.6627906976744L476.5181169728895,194.96511627906978L477.6266063603591,189.31395348837208L478.6993380256522,180.83720930232556L479.8078274131218,180.83720930232556L480.9163168005913,189.31395348837208L481.953290743708,200.61627906976744L483.0617801311776,217.56976744186048L484.1345117964707,223.22093023255815L485.2430011839403,223.22093023255815L486.3157328492334,211.91860465116278L487.424222236703,211.91860465116278L488.5327116241726,209.09302325581396L489.60544328946565,203.4418604651163L490.71393267693526,206.2674418604651L491.7866643422284,209.09302325581396L492.89515372969794,200.61627906976744L494.0036431171675,200.61627906976744L495.00485933810774,192.13953488372093L496.1133487255773,178.01162790697674L497.1860803908705,169.53488372093022L498.29456977833996,169.53488372093022L499.36730144363315,166.70930232558138L500.4757908311027,161.0581395348837L501.58428021857225,161.0581395348837L502.6570118838654,152.5813953488372L503.7655012713349,144.1046511627907L504.83823293662806,144.1046511627907L505.94672232409766,141.27906976744185L507.0552117115672,124.32558139534883L508.05642793250746,118.67441860465115L509.164917319977,115.84883720930232L510.23764898527014,104.54651162790697" stroke="rgb(31,119,180)" id="values" style="mix-blend-mode: normal; fill: none; stroke-width: 3; stroke-linejoin: round; stroke-linecap: round; stroke: rgb(31, 119, 180);"/></g></g><g id="line-symbols-svg"><path d="M -1,0 a 1,1 0 1,0 2,0 a 1,1 0 1,0 -2,0 Z" id="values" transform="translate(510.23764898527014, 104.54651162790697) scale(6)" style="mix-blend-mode: normal; fill: rgb(31, 119, 180);"/></g><g id="x-tick-labels-svg grid-x-svg date-axis-svg datawrapper-K22wH-14jwf37-svg" transform="translate(0, 248)"><text transform="translate(22.716864831719857, 14) translate(-15.67920, 0.00000) translate(15.67919921875, 0)" style="text-anchor: middle;"><tspan fill="rgb(123, 123, 123)" style="font-family: Arial; font-weight: 400; font-stretch: 100%; font-size: 14px;" x="0" dominant-baseline="auto" y="0">1985</tspan></text><text transform="translate(88.01046552589492, 14) translate(-15.67920, 0.00000) translate(15.67919921875, 0)" style="text-anchor: middle;"><tspan fill="rgb(123, 123, 123)" style="font-family: Arial; font-weight: 400; font-stretch: 100%; font-size: 14px;" x="0" dominant-baseline="auto" y="0">1990</tspan></text><text transform="translate(153.30406622006998, 14) translate(-15.67920, 0.00000) translate(15.67919921875, 0)" style="text-anchor: middle;"><tspan fill="rgb(123, 123, 123)" style="font-family: Arial; font-weight: 400; font-stretch: 100%; font-size: 14px;" x="0" dominant-baseline="auto" y="0">1995</tspan></text><text transform="translate(218.59766691424505, 14) translate(-15.67919, 0.00000) translate(15.679191589355469, 0)" style="text-anchor: middle;"><tspan fill="rgb(123, 123, 123)" style="font-family: Arial; font-weight: 400; font-stretch: 100%; font-size: 14px;" x="0" dominant-baseline="auto" y="0">2000</tspan></text><text transform="translate(283.92702533059656, 14) translate(-15.67920, 0.00000) translate(15.67919921875, 0)" style="text-anchor: middle;"><tspan fill="rgb(123, 123, 123)" style="font-family: Arial; font-weight: 400; font-stretch: 100%; font-size: 14px;" x="0" dominant-baseline="auto" y="0">2005</tspan></text><text transform="translate(349.22062602477166, 14) translate(-15.67920, 0.00000) translate(15.67919921875, 0)" style="text-anchor: middle;"><tspan fill="rgb(123, 123, 123)" style="font-family: Arial; font-weight: 400; font-stretch: 100%; font-size: 14px;" x="0" dominant-baseline="auto" y="0">2010</tspan></text><text transform="translate(414.5142267189467, 14) translate(-15.67920, 0.00000) translate(15.67919921875, 0)" style="text-anchor: middle;"><tspan fill="rgb(123, 123, 123)" style="font-family: Arial; font-weight: 400; font-stretch: 100%; font-size: 14px;" x="0" dominant-baseline="auto" y="0">2015</tspan></text><text transform="translate(479.8078274131218, 14) translate(-15.67921, 0.00000) translate(15.679214477539062, 0)" style="text-anchor: middle;"><tspan fill="rgb(123, 123, 123)" style="font-family: Arial; font-weight: 400; font-stretch: 100%; font-size: 14px;" x="0" dominant-baseline="auto" y="0">2020</tspan></text></g><g id="x-base-lines-svg grid-x-svg datawrapper-K22wH-n2qvu0-svg"/><g id="y-tick-labels-svg grid-y-svg number-axis-svg datawrapper-K22wH-126iv6-svg" transform="translate(-5, 0)"><text transform="translate(0, 248) translate(-27.85156, 0.00000) translate(27.8515625, 0)" style="text-anchor: end;"><tspan fill="rgb(166, 166, 166)" style="font-family: Arial; font-weight: 400; font-stretch: 100%; font-size: 14px;" x="0" dominant-baseline="auto" y="0">−2,0</tspan></text><text transform="translate(0, 191.48837209302326) translate(-19.67578, 0.00000) translate(19.67578125, 0)" style="text-anchor: end;"><tspan fill="rgb(166, 166, 166)" style="font-family: Arial; font-weight: 400; font-stretch: 100%; font-size: 14px;" x="0" dominant-baseline="auto" y="0">0,0</tspan></text><text transform="translate(0, 134.97674418604652) translate(-19.67578, 0.00000) translate(19.67578125, 0)" style="text-anchor: end;"><tspan fill="rgb(166, 166, 166)" style="font-family: Arial; font-weight: 400; font-stretch: 100%; font-size: 14px;" x="0" dominant-baseline="auto" y="0">2,0</tspan></text><text transform="translate(0, 78.46511627906978) translate(-19.67578, 0.00000) translate(19.67578125, 0)" style="text-anchor: end;"><tspan fill="rgb(166, 166, 166)" style="font-family: Arial; font-weight: 400; font-stretch: 100%; font-size: 14px;" x="0" dominant-baseline="auto" y="0">4,0</tspan></text><text transform="translate(0, 21.953488372093034) translate(-31.92188, 0.00000) translate(31.921875, 0)" style="text-anchor: end;"><tspan fill="rgb(166, 166, 166)" style="font-family: Arial; font-weight: 400; font-stretch: 100%; font-size: 14px;" x="0" dominant-baseline="auto" y="0">6,0%</tspan></text></g><g id="y-base-lines-svg grid-y-svg datawrapper-K22wH-n2qvu0-svg"><line x1="519.8671875" x2="0" y1="0" y2="0" transform="translate(0, 186.48837209302326)" style="fill: none; stroke-width: 1; stroke-linejoin: miter; stroke-linecap: square; stroke: rgb(51, 51, 51);"/></g></g></g><g id="values-svg" clip-path="url(#rect-mask-values-CsD1SPgnVVl9DPcz5JxmT)" transform="translate(0.00000, 63.00000)"><clipPath id="rect-mask-values-CsD1SPgnVVl9DPcz5JxmT"><rect x="0" y="0" width="16" height="20"/></clipPath><path d="M1.5,10 L14.5,10" stroke="rgb(31,119,180)" id="values" style="mix-blend-mode: normal; fill: none; stroke-width: 3; stroke-linejoin: round; stroke-linecap: round; stroke: rgb(31, 119, 180);"/></g><text transform="translate(20, 66.03125)" id="values"><tspan fill="rgb(51,51,51)" x="0" y="14" style="font-family: Arial; font-weight: 400; font-stretch: 100%; font-size: 14px;">Veränderung zum Vorjahr</tspan></text><text transform="translate(557.984375, 195.53125)" id="values"><tspan fill="rgb(51,51,51)" x="0" y="14" style="font-family: Arial; font-weight: 400; font-stretch: 100%; font-size: 14px;">2,9%</tspan></text><g id="tooltip-layer-svg" clip-path="url(#rect-mask-tooltip-layer-zokeGbM7zY0ch09mj1kP9)" transform="translate(0.00000, 63.00000)"><clipPath id="rect-mask-tooltip-layer-zokeGbM7zY0ch09mj1kP9"><rect x="0" y="0" width="600" height="298"/></clipPath><g id="group-svg" transform="translate(38.1328125, 33)"/></g></g><g id="above-footer-svg"><text transform="translate(0, 381)"><tspan fill="rgb(51,51,51)" x="0" y="12" style="font-family: Arial; font-weight: 400; font-stretch: 100%; font-size: 12px;">Grafik: Keystone-SDA, Quelle: BFS</tspan></text></g><g id="footer-svg"/></g></g></svg>