<svg xmlns="http://www.w3.org/2000/svg" xmlns:xlink="http://www.w3.org/1999/xlink" id="exportSvg" width="600" height="400"><defs/><rect width="600" height="400" transform="translate(0, 0)" fill="#FFFFFF" style="fill: rgb(255, 255, 255);"/><g><g id="__svelte-dw-svg" clip-path="url(#rect-mask-__svelte-dw-TFDoYz4KsbsSKhbr0F1zM)"><clipPath id="rect-mask-__svelte-dw-TFDoYz4KsbsSKhbr0F1zM"><rect x="0" y="0" width="600" height="400"/></clipPath><g id="header-svg"><text transform="translate(0, 0)"><tspan fill="rgb(51,51,51)" x="0" y="22" style="font-family: Arial; font-weight: 700; font-stretch: 100%; font-size: 22px;">Teuerung in der Schweiz in den letzten fünf Jahren</tspan></text><text transform="translate(0, 31)"><tspan fill="rgb(51,51,51)" x="0" y="14" style="font-family: Arial; font-weight: 400; font-stretch: 100%; font-size: 14px;">Im Mai 2022 waren die Konsumgüter in der Schweiz</tspan><tspan fill="rgb(51,51,51)" style="font-family: Arial; font-weight: 700; font-stretch: 100%; font-size: 14px;">​ 2,9%</tspan><tspan fill="rgb(51,51,51)" style="font-family: Arial; font-weight: 400; font-stretch: 100%; font-size: 14px;">​ teurer als vor einem Jahr</tspan></text></g><g id="chart-svg"><g id="svg-main-svg" clip-path="url(#rect-mask-svg-main-YCzuDCHEPIa4AUQ6nCfaS)" transform="translate(0.00000, 63.00000)"><clipPath id="rect-mask-svg-main-YCzuDCHEPIa4AUQ6nCfaS"><rect x="0" y="0" width="600" height="298"/></clipPath><g id="group-svg" transform="translate(38.1328125, 41)"><g id="y-grid-lines-svg grid-y-svg datawrapper-atjlB-1l9st31-svg"><line x1="0" x2="519.8671875" y1="0" y2="0" transform="translate(0, 208.88888888888889)" style="fill: none; stroke-width: 1; stroke-linejoin: miter; stroke-linecap: butt; stroke: rgb(232, 232, 232);"/><line x1="0" x2="519.8671875" y1="0" y2="0" transform="translate(0, 104.44444444444443)" style="fill: none; stroke-width: 1; stroke-linejoin: miter; stroke-linecap: butt; stroke: rgb(232, 232, 232);"/><line x1="0" x2="519.8671875" y1="0" y2="0" transform="translate(0, 52.22222222222223)" style="fill: none; stroke-width: 1; stroke-linejoin: miter; stroke-linecap: butt; stroke: rgb(232, 232, 232);"/><line x1="0" x2="519.8671875" y1="0" y2="0" transform="translate(0, 0)" style="fill: none; stroke-width: 1; stroke-linejoin: miter; stroke-linecap: butt; stroke: rgb(232, 232, 232);"/></g><path d="M9.629538516414723,156.66666666666669L17.99624788360801,156.66666666666669L26.641847563041075,156.66666666666669L35.28744724247414,156.66666666666669L43.65415660966743,156.66666666666669L52.29975628910049,156.66666666666669L60.66646565629378,156.66666666666669L69.31206533572684,156.66666666666669L77.95766501515992,156.66666666666669L85.76659375787365,156.66666666666669L94.41219343730671,156.66666666666669L102.7789028045,156.66666666666669L111.42450248393307,156.66666666666669L119.79121185112636,156.66666666666669L128.43681153055942,156.66666666666669L137.08241120999247,156.66666666666669L145.4491205771858,156.66666666666669L154.09472025661884,156.66666666666669L162.46142962381214,156.66666666666669L171.1070293032452,156.66666666666669L179.75262898267826,156.66666666666669L187.561557725392,156.66666666666669L196.20715740482507,156.66666666666669L204.57386677201836,156.66666666666669L213.2194664514514,156.66666666666669L221.5861758186447,156.66666666666669L230.23177549807778,156.66666666666669L238.87737517751086,156.66666666666669L247.24408454470412,156.66666666666669L255.8896842241372,156.66666666666669L264.2563935913305,156.66666666666669L272.9019932707635,156.66666666666669L281.54759295019664,156.66666666666669L289.63541200515016,156.66666666666669L298.2810116845832,156.66666666666669L306.6477210517765,156.66666666666669L315.2933207312096,156.66666666666669L323.66003009840284,156.66666666666669L332.3056297778359,156.66666666666669L340.951229457269,156.66666666666669L349.31793882446226,156.66666666666669L357.96353850389534,156.66666666666669L366.3302478710886,156.66666666666669L374.9758475505217,156.66666666666669L383.62144722995475,156.66666666666669L391.43037597266846,156.66666666666669L400.07597565210153,156.66666666666669L408.4426850192948,156.66666666666669L417.0882846987279,156.66666666666669L425.4549940659212,156.66666666666669L434.1005937453542,156.66666666666669L442.74619342478735,156.66666666666669L451.1129027919806,156.66666666666669L459.75850247141364,156.66666666666669L468.12521183860696,156.66666666666669L476.77081151804,156.66666666666669L485.41641119747305,156.66666666666669L493.2253399401868,156.66666666666669L501.8709396196199,156.66666666666669L510.23764898681316,156.66666666666669L510.23764898681316,5.2222222222222L501.8709396196199,26.111111111111114L493.2253399401868,31.333333333333314L485.41641119747305,41.77777777777777L476.77081151804,73.11111111111111L468.12521183860696,78.33333333333334L459.75850247141364,78.33333333333334L451.1129027919806,93.99999999999997L442.74619342478735,109.66666666666667L434.1005937453542,109.66666666666667L425.4549940659212,120.1111111111111L417.0882846987279,125.33333333333333L408.4426850192948,125.33333333333333L400.07597565210153,141L391.43037597266846,167.1111111111111L383.62144722995475,182.77777777777777L374.9758475505217,182.77777777777777L366.3302478710886,198.44444444444446L357.96353850389534,193.22222222222223L349.31793882446226,188L340.951229457269,198.44444444444446L332.3056297778359,203.66666666666666L323.66003009840284,203.66666666666666L315.2933207312096,224.55555555555557L306.6477210517765,224.55555555555557L298.2810116845832,214.11111111111111L289.63541200515016,182.77777777777777L281.54759295019664,161.88888888888889L272.9019932707635,146.22222222222223L264.2563935913305,146.22222222222223L255.8896842241372,161.88888888888889L247.24408454470412,172.33333333333334L238.87737517751086,151.44444444444446L230.23177549807778,141L221.5861758186447,141L213.2194664514514,125.33333333333333L204.57386677201836,125.33333333333333L196.20715740482507,120.1111111111111L187.561557725392,120.1111111111111L179.75262898267826,125.33333333333333L171.1070293032452,125.33333333333333L162.46142962381214,120.1111111111111L154.09472025661884,109.66666666666667L145.4491205771858,99.2222222222222L137.08241120999247,104.44444444444443L128.43681153055942,93.99999999999997L119.79121185112636,93.99999999999997L111.42450248393307,99.2222222222222L102.7789028045,104.44444444444443L94.41219343730671,114.8888888888889L85.76659375787365,114.8888888888889L77.95766501515992,125.33333333333333L69.31206533572684,120.1111111111111L60.66646565629378,114.8888888888889L52.29975628910049,114.8888888888889L43.65415660966743,120.1111111111111L35.28744724247414,120.1111111111111L26.641847563041075,130.55555555555554L17.99624788360801,141L9.629538516414723,146.22222222222223Z" style="mix-blend-mode: normal; fill: rgb(204, 204, 204); opacity: 0.3;"/><g id="lines-svg"><g id="values-svg"><path d="M9.629538516414723,146.22222222222223L17.99624788360801,141L26.641847563041075,130.55555555555554L35.28744724247414,120.1111111111111L43.65415660966743,120.1111111111111L52.29975628910049,114.8888888888889L60.66646565629378,114.8888888888889L69.31206533572684,120.1111111111111L77.95766501515992,125.33333333333333L85.76659375787365,114.8888888888889L94.41219343730671,114.8888888888889L102.7789028045,104.44444444444443L111.42450248393307,99.2222222222222L119.79121185112636,93.99999999999997L128.43681153055942,93.99999999999997L137.08241120999247,104.44444444444443L145.4491205771858,99.2222222222222L154.09472025661884,109.66666666666667L162.46142962381214,120.1111111111111L171.1070293032452,125.33333333333333L179.75262898267826,125.33333333333333L187.561557725392,120.1111111111111L196.20715740482507,120.1111111111111L204.57386677201836,125.33333333333333L213.2194664514514,125.33333333333333L221.5861758186447,141L230.23177549807778,141L238.87737517751086,151.44444444444446L247.24408454470412,172.33333333333334L255.8896842241372,161.88888888888889L264.2563935913305,146.22222222222223L272.9019932707635,146.22222222222223L281.54759295019664,161.88888888888889L289.63541200515016,182.77777777777777L298.2810116845832,214.11111111111111L306.6477210517765,224.55555555555557L315.2933207312096,224.55555555555557L323.66003009840284,203.66666666666666L332.3056297778359,203.66666666666666L340.951229457269,198.44444444444446L349.31793882446226,188L357.96353850389534,193.22222222222223L366.3302478710886,198.44444444444446L374.9758475505217,182.77777777777777L383.62144722995475,182.77777777777777L391.43037597266846,167.1111111111111L400.07597565210153,141L408.4426850192948,125.33333333333333L417.0882846987279,125.33333333333333L425.4549940659212,120.1111111111111L434.1005937453542,109.66666666666667L442.74619342478735,109.66666666666667L451.1129027919806,93.99999999999997L459.75850247141364,78.33333333333334L468.12521183860696,78.33333333333334L476.77081151804,73.11111111111111L485.41641119747305,41.77777777777777L493.2253399401868,31.333333333333314L501.8709396196199,26.111111111111114L510.23764898681316,5.2222222222222" stroke="rgb(31,119,180)" id="values" style="mix-blend-mode: normal; fill: none; stroke-width: 3; stroke-linejoin: round; stroke-linecap: round; stroke: rgb(31, 119, 180);"/></g></g><g id="line-symbols-svg"><path d="M -1,0 a 1,1 0 1,0 2,0 a 1,1 0 1,0 -2,0 Z" id="values" transform="translate(510.23764898681316, 5.2222222222222) scale(6)" style="mix-blend-mode: normal; fill: rgb(31, 119, 180);"/></g><g id="x-tick-labels-svg grid-x-svg date-axis-svg datawrapper-atjlB-14jwf37-svg" transform="translate(0, 240)"><text transform="translate(69.31206533572684, 14) translate(-15.67920, 0.00000) translate(15.67919921875, 0)" style="text-anchor: middle;"><tspan fill="rgb(123, 123, 123)" style="font-family: Arial; font-weight: 400; font-stretch: 100%; font-size: 14px;" x="0" dominant-baseline="auto" y="0">2018</tspan></text><text transform="translate(171.1070293032452, 14) translate(-15.67920, 0.00000) translate(15.67919921875, 0)" style="text-anchor: middle;"><tspan fill="rgb(123, 123, 123)" style="font-family: Arial; font-weight: 400; font-stretch: 100%; font-size: 14px;" x="0" dominant-baseline="auto" y="0">2019</tspan></text><text transform="translate(272.9019932707635, 14) translate(-15.67920, 0.00000) translate(15.67919921875, 0)" style="text-anchor: middle;"><tspan fill="rgb(123, 123, 123)" style="font-family: Arial; font-weight: 400; font-stretch: 100%; font-size: 14px;" x="0" dominant-baseline="auto" y="0">2020</tspan></text><text transform="translate(374.9758475505217, 14) translate(-15.57813, 0.00000) translate(15.578125, 0)" style="text-anchor: middle;"><tspan fill="rgb(123, 123, 123)" style="font-family: Arial; font-weight: 400; font-stretch: 100%; font-size: 14px;" x="0" dominant-baseline="auto" y="0">2021</tspan></text><text transform="translate(476.77081151804, 14) translate(-15.67920, 0.00000) translate(15.67919921875, 0)" style="text-anchor: middle;"><tspan fill="rgb(123, 123, 123)" style="font-family: Arial; font-weight: 400; font-stretch: 100%; font-size: 14px;" x="0" dominant-baseline="auto" y="0">2022</tspan></text></g><g id="x-base-lines-svg grid-x-svg datawrapper-atjlB-n2qvu0-svg"/><g id="y-tick-labels-svg grid-y-svg number-axis-svg datawrapper-atjlB-126iv6-svg" transform="translate(-5, 0)"><text transform="translate(0, 213.88888888888889) translate(-27.85156, 0.00000) translate(27.8515625, 0)" style="text-anchor: end;"><tspan fill="rgb(166, 166, 166)" style="font-family: Arial; font-weight: 400; font-stretch: 100%; font-size: 14px;" x="0" dominant-baseline="auto" y="0">−1,0</tspan></text><text transform="translate(0, 161.66666666666669) translate(-19.67578, 0.00000) translate(19.67578125, 0)" style="text-anchor: end;"><tspan fill="rgb(166, 166, 166)" style="font-family: Arial; font-weight: 400; font-stretch: 100%; font-size: 14px;" x="0" dominant-baseline="auto" y="0">0,0</tspan></text><text transform="translate(0, 109.44444444444443) translate(-19.67578, 0.00000) translate(19.67578125, 0)" style="text-anchor: end;"><tspan fill="rgb(166, 166, 166)" style="font-family: Arial; font-weight: 400; font-stretch: 100%; font-size: 14px;" x="0" dominant-baseline="auto" y="0">1,0</tspan></text><text transform="translate(0, 57.22222222222223) translate(-19.67578, 0.00000) translate(19.67578125, 0)" style="text-anchor: end;"><tspan fill="rgb(166, 166, 166)" style="font-family: Arial; font-weight: 400; font-stretch: 100%; font-size: 14px;" x="0" dominant-baseline="auto" y="0">2,0</tspan></text><text transform="translate(0, 5) translate(-31.92188, 0.00000) translate(31.921875, 0)" style="text-anchor: end;"><tspan fill="rgb(166, 166, 166)" style="font-family: Arial; font-weight: 400; font-stretch: 100%; font-size: 14px;" x="0" dominant-baseline="auto" y="0">3,0%</tspan></text></g><g id="y-base-lines-svg grid-y-svg datawrapper-atjlB-n2qvu0-svg"><line x1="519.8671875" x2="0" y1="0" y2="0" transform="translate(0, 156.66666666666669)" style="fill: none; stroke-width: 1; stroke-linejoin: miter; stroke-linecap: square; stroke: rgb(51, 51, 51);"/></g></g></g><g id="values-svg" clip-path="url(#rect-mask-values-VYbhA2Tje3nXgoTtOBXmh)" transform="translate(0.00000, 63.00000)"><clipPath id="rect-mask-values-VYbhA2Tje3nXgoTtOBXmh"><rect x="0" y="0" width="16" height="20"/></clipPath><path d="M1.5,10 L14.5,10" stroke="rgb(31,119,180)" id="values" style="mix-blend-mode: normal; fill: none; stroke-width: 3; stroke-linejoin: round; stroke-linecap: round; stroke: rgb(31, 119, 180);"/></g><text transform="translate(20, 66.03125)" id="values"><tspan fill="rgb(51,51,51)" x="0" y="14" style="font-family: Arial; font-weight: 400; font-stretch: 100%; font-size: 14px;">Veränderung zum Vorjahr</tspan></text><text transform="translate(557.984375, 104.21875)" id="values"><tspan fill="rgb(51,51,51)" x="0" y="14" style="font-family: Arial; font-weight: 400; font-stretch: 100%; font-size: 14px;">2,9%</tspan></text><g id="tooltip-layer-svg" clip-path="url(#rect-mask-tooltip-layer-b_ujUjF3CAOdAvu3vHUW8)" transform="translate(0.00000, 63.00000)"><clipPath id="rect-mask-tooltip-layer-b_ujUjF3CAOdAvu3vHUW8"><rect x="0" y="0" width="600" height="298"/></clipPath><g id="group-svg" transform="translate(38.1328125, 41)"/></g></g><g id="above-footer-svg"><text transform="translate(0, 381)"><tspan fill="rgb(51,51,51)" x="0" y="12" style="font-family: Arial; font-weight: 400; font-stretch: 100%; font-size: 12px;">Grafik: Keystone-SDA, Quelle: BFS</tspan></text></g><g id="footer-svg"/></g></g></svg>