<svg xmlns="http://www.w3.org/2000/svg" xmlns:xlink="http://www.w3.org/1999/xlink" id="exportSvg" width="600" height="400"><defs/><rect width="600" height="400" transform="translate(0, 0)" fill="#FFFFFF" style="fill: rgb(255, 255, 255);"/><g><g id="__svelte-dw-svg" clip-path="url(#rect-mask-__svelte-dw-QcdcKzCa7B9YdXE5jJGu7)"><clipPath id="rect-mask-__svelte-dw-QcdcKzCa7B9YdXE5jJGu7"><rect x="0" y="0" width="600" height="400"/></clipPath><g id="header-svg"><text transform="translate(0, 0)"><tspan fill="rgb(51,51,51)" x="0" y="22" style="font-family: Arial; font-weight: 700; font-stretch: 100%; font-size: 22px;">Teuerung in der Schweiz in den letzten fünf Jahren</tspan></text><text transform="translate(0, 32)"><tspan fill="rgb(51,51,51)" x="0" y="14" style="font-family: Arial; font-weight: 400; font-stretch: 100%; font-size: 14px;">Im Juni 2022 waren die Konsumgüter in der Schweiz</tspan><tspan fill="rgb(51,51,51)" style="font-family: Arial; font-weight: 700; font-stretch: 100%; font-size: 14px;">​ 3,4%</tspan><tspan fill="rgb(51,51,51)" style="font-family: Arial; font-weight: 400; font-stretch: 100%; font-size: 14px;">​ teurer als vor einem Jahr</tspan></text></g><g id="chart-svg"><g id="svg-main-svg" clip-path="url(#rect-mask-svg-main-mQy9IlPioxdigdetkSv-d)" transform="translate(0.00000, 64.00000)"><clipPath id="rect-mask-svg-main-mQy9IlPioxdigdetkSv-d"><rect x="0" y="0" width="600" height="296"/></clipPath><g id="group-svg" transform="translate(38, 41)"><g id="y-grid-lines-svg grid-y-svg datawrapper-atjlB-1l9st31-svg"><line x1="0" x2="520" y1="0" y2="0" transform="translate(0, 207.11111111111111)" style="fill: none; stroke-width: 1; stroke-linejoin: miter; stroke-linecap: butt; stroke: rgb(232, 232, 232);"/><line x1="0" x2="520" y1="0" y2="0" transform="translate(0, 103.55555555555554)" style="fill: none; stroke-width: 1; stroke-linejoin: miter; stroke-linecap: butt; stroke: rgb(232, 232, 232);"/><line x1="0" x2="520" y1="0" y2="0" transform="translate(0, 51.77777777777777)" style="fill: none; stroke-width: 1; stroke-linejoin: miter; stroke-linecap: butt; stroke: rgb(232, 232, 232);"/><line x1="0" x2="520" y1="0" y2="0" transform="translate(0, 0)" style="fill: none; stroke-width: 1; stroke-linejoin: miter; stroke-linecap: butt; stroke: rgb(232, 232, 232);"/></g><path d="M9.629629630393726,155.33333333333334L17.856476411484415,155.33333333333334L26.357551418611457,155.33333333333334L34.8586264257385,155.33333333333334L43.085473206829185,155.33333333333334L51.58654821395623,155.33333333333334L59.81339499504691,155.33333333333334L68.31447000217396,155.33333333333334L76.815545009301,155.33333333333334L84.49393533831898,155.33333333333334L92.99501034544602,155.33333333333334L101.2218571265367,155.33333333333334L109.72293213366375,155.33333333333334L117.94977891475445,155.33333333333334L126.45085392188147,155.33333333333334L134.95192892900852,155.33333333333334L143.17877571009922,155.33333333333334L151.67985071722626,155.33333333333334L159.90669749831696,155.33333333333334L168.40777250544397,155.33333333333334L176.90884751257104,155.33333333333334L184.587237841589,155.33333333333334L193.08831284871607,155.33333333333334L201.31515962980671,155.33333333333334L209.81623463693379,155.33333333333334L218.04308141802446,155.33333333333334L226.54415642515153,155.33333333333334L235.04523143227854,155.33333333333334L243.27207821336924,155.33333333333334L251.77315322049628,155.33333333333334L260.000000001587,155.33333333333334L268.501075008714,155.33333333333334L277.00215001584104,155.33333333333334L284.9547685708954,155.33333333333334L293.45584357802244,155.33333333333334L301.68269035911317,155.33333333333334L310.18376536624015,155.33333333333334L318.4106121473308,155.33333333333334L326.9116871544579,155.33333333333334L335.4127621615849,155.33333333333334L343.6396089426756,155.33333333333334L352.1406839498027,155.33333333333334L360.36753073089335,155.33333333333334L368.86860573802045,155.33333333333334L377.36968074514743,155.33333333333334L385.04807107416536,155.33333333333334L393.54914608129246,155.33333333333334L401.77599286238313,155.33333333333334L410.2770678695102,155.33333333333334L418.5039146506009,155.33333333333334L427.0049896577279,155.33333333333334L435.506064664855,155.33333333333334L443.73291144594566,155.33333333333334L452.2339864530727,155.33333333333334L460.4608332341634,155.33333333333334L468.9619082412904,155.33333333333334L477.46298324841746,155.33333333333334L485.14137357743544,155.33333333333334L493.6424485845625,155.33333333333334L501.8692953656532,155.33333333333334L510.3703703727802,155.33333333333334L510.3703703727802,-20.711111111111137L501.8692953656532,5.177777777777749L493.6424485845625,25.888888888888914L485.14137357743544,31.066666666666663L477.46298324841746,41.42222222222222L468.9619082412904,72.48888888888888L460.4608332341634,77.66666666666669L452.2339864530727,77.66666666666669L443.73291144594566,93.19999999999999L435.506064664855,108.73333333333333L427.0049896577279,108.73333333333333L418.5039146506009,119.08888888888887L410.2770678695102,124.26666666666667L401.77599286238313,124.26666666666667L393.54914608129246,139.8L385.04807107416536,165.68888888888887L377.36968074514743,181.22222222222223L368.86860573802045,181.22222222222223L360.36753073089335,196.75555555555556L352.1406839498027,191.57777777777778L343.6396089426756,186.4L335.4127621615849,196.75555555555556L326.9116871544579,201.93333333333334L318.4106121473308,201.93333333333334L310.18376536624015,222.64444444444445L301.68269035911317,222.64444444444445L293.45584357802244,212.2888888888889L284.9547685708954,181.22222222222223L277.00215001584104,160.51111111111112L268.501075008714,144.97777777777776L260.000000001587,144.97777777777776L251.77315322049628,160.51111111111112L243.27207821336924,170.86666666666667L235.04523143227854,150.15555555555557L226.54415642515153,139.8L218.04308141802446,139.8L209.81623463693379,124.26666666666667L201.31515962980671,124.26666666666667L193.08831284871607,119.08888888888887L184.587237841589,119.08888888888887L176.90884751257104,124.26666666666667L168.40777250544397,124.26666666666667L159.90669749831696,119.08888888888887L151.67985071722626,108.73333333333333L143.17877571009922,98.37777777777777L134.95192892900852,103.55555555555554L126.45085392188147,93.19999999999999L117.94977891475445,93.19999999999999L109.72293213366375,98.37777777777777L101.2218571265367,103.55555555555554L92.99501034544602,113.91111111111113L84.49393533831898,113.91111111111113L76.815545009301,124.26666666666667L68.31447000217396,119.08888888888887L59.81339499504691,113.91111111111113L51.58654821395623,113.91111111111113L43.085473206829185,119.08888888888887L34.8586264257385,119.08888888888887L26.357551418611457,129.44444444444446L17.856476411484415,139.8L9.629629630393726,144.97777777777776Z" style="mix-blend-mode: normal; fill: rgb(204, 204, 204); opacity: 0.3;"/><g id="lines-svg"><g id="values-svg"><path d="M9.629629630393726,144.97777777777776L17.856476411484415,139.8L26.357551418611457,129.44444444444446L34.8586264257385,119.08888888888887L43.085473206829185,119.08888888888887L51.58654821395623,113.91111111111113L59.81339499504691,113.91111111111113L68.31447000217396,119.08888888888887L76.815545009301,124.26666666666667L84.49393533831898,113.91111111111113L92.99501034544602,113.91111111111113L101.2218571265367,103.55555555555554L109.72293213366375,98.37777777777777L117.94977891475445,93.19999999999999L126.45085392188147,93.19999999999999L134.95192892900852,103.55555555555554L143.17877571009922,98.37777777777777L151.67985071722626,108.73333333333333L159.90669749831696,119.08888888888887L168.40777250544397,124.26666666666667L176.90884751257104,124.26666666666667L184.587237841589,119.08888888888887L193.08831284871607,119.08888888888887L201.31515962980671,124.26666666666667L209.81623463693379,124.26666666666667L218.04308141802446,139.8L226.54415642515153,139.8L235.04523143227854,150.15555555555557L243.27207821336924,170.86666666666667L251.77315322049628,160.51111111111112L260.000000001587,144.97777777777776L268.501075008714,144.97777777777776L277.00215001584104,160.51111111111112L284.9547685708954,181.22222222222223L293.45584357802244,212.2888888888889L301.68269035911317,222.64444444444445L310.18376536624015,222.64444444444445L318.4106121473308,201.93333333333334L326.9116871544579,201.93333333333334L335.4127621615849,196.75555555555556L343.6396089426756,186.4L352.1406839498027,191.57777777777778L360.36753073089335,196.75555555555556L368.86860573802045,181.22222222222223L377.36968074514743,181.22222222222223L385.04807107416536,165.68888888888887L393.54914608129246,139.8L401.77599286238313,124.26666666666667L410.2770678695102,124.26666666666667L418.5039146506009,119.08888888888887L427.0049896577279,108.73333333333333L435.506064664855,108.73333333333333L443.73291144594566,93.19999999999999L452.2339864530727,77.66666666666669L460.4608332341634,77.66666666666669L468.9619082412904,72.48888888888888L477.46298324841746,41.42222222222222L485.14137357743544,31.066666666666663L493.6424485845625,25.888888888888914L501.8692953656532,5.177777777777749L510.3703703727802,-20.711111111111137" stroke="rgb(31,119,180)" id="values" style="mix-blend-mode: normal; fill: none; stroke-width: 3; stroke-linejoin: round; stroke-linecap: round; stroke: rgb(31, 119, 180);"/></g></g><g id="line-symbols-svg"><path d="M -1,0 a 1,1 0 1,0 2,0 a 1,1 0 1,0 -2,0 Z" id="values" transform="translate(510.3703703727802, -20.711111111111137) scale(6)" style="mix-blend-mode: normal; fill: rgb(31, 119, 180);"/></g><g id="x-tick-labels-svg grid-x-svg date-axis-svg datawrapper-atjlB-14jwf37-svg" transform="translate(0, 238)"><text transform="translate(68.31447000217396, 14) translate(-16.00000, 0.00000) translate(16, 0)" style="text-anchor: middle;"><tspan fill="rgb(123, 123, 123)" style="font-family: Arial; font-weight: 400; font-stretch: 100%; font-size: 14px;" x="0" dominant-baseline="auto" y="0">2018</tspan></text><text transform="translate(168.40777250544397, 14) translate(-16.00000, 0.00000) translate(16, 0)" style="text-anchor: middle;"><tspan fill="rgb(123, 123, 123)" style="font-family: Arial; font-weight: 400; font-stretch: 100%; font-size: 14px;" x="0" dominant-baseline="auto" y="0">2019</tspan></text><text transform="translate(268.501075008714, 14) translate(-16.00000, 0.00000) translate(16, 0)" style="text-anchor: middle;"><tspan fill="rgb(123, 123, 123)" style="font-family: Arial; font-weight: 400; font-stretch: 100%; font-size: 14px;" x="0" dominant-baseline="auto" y="0">2020</tspan></text><text transform="translate(368.86860573802045, 14) translate(-16.00000, 0.00000) translate(16, 0)" style="text-anchor: middle;"><tspan fill="rgb(123, 123, 123)" style="font-family: Arial; font-weight: 400; font-stretch: 100%; font-size: 14px;" x="0" dominant-baseline="auto" y="0">2021</tspan></text><text transform="translate(468.9619082412904, 14) translate(-16.00000, 0.00000) translate(16, 0)" style="text-anchor: middle;"><tspan fill="rgb(123, 123, 123)" style="font-family: Arial; font-weight: 400; font-stretch: 100%; font-size: 14px;" x="0" dominant-baseline="auto" y="0">2022</tspan></text></g><g id="x-base-lines-svg grid-x-svg datawrapper-atjlB-n2qvu0-svg"/><g id="y-tick-labels-svg grid-y-svg number-axis-svg datawrapper-atjlB-126iv6-svg" transform="translate(-5, 0)"><text transform="translate(0, 212.11111111111111) translate(-28.00000, 0.00000) translate(28, 0)" style="text-anchor: end;"><tspan fill="rgb(166, 166, 166)" style="font-family: Arial; font-weight: 400; font-stretch: 100%; font-size: 14px;" x="0" dominant-baseline="auto" y="0">−1,0</tspan></text><text transform="translate(0, 160.33333333333334) translate(-20.00000, 0.00000) translate(20, 0)" style="text-anchor: end;"><tspan fill="rgb(166, 166, 166)" style="font-family: Arial; font-weight: 400; font-stretch: 100%; font-size: 14px;" x="0" dominant-baseline="auto" y="0">0,0</tspan></text><text transform="translate(0, 108.55555555555554) translate(-20.00000, 0.00000) translate(20, 0)" style="text-anchor: end;"><tspan fill="rgb(166, 166, 166)" style="font-family: Arial; font-weight: 400; font-stretch: 100%; font-size: 14px;" x="0" dominant-baseline="auto" y="0">1,0</tspan></text><text transform="translate(0, 56.77777777777777) translate(-20.00000, 0.00000) translate(20, 0)" style="text-anchor: end;"><tspan fill="rgb(166, 166, 166)" style="font-family: Arial; font-weight: 400; font-stretch: 100%; font-size: 14px;" x="0" dominant-baseline="auto" y="0">2,0</tspan></text><text transform="translate(0, 5) translate(-32.00000, 0.00000) translate(32, 0)" style="text-anchor: end;"><tspan fill="rgb(166, 166, 166)" style="font-family: Arial; font-weight: 400; font-stretch: 100%; font-size: 14px;" x="0" dominant-baseline="auto" y="0">3,0%</tspan></text></g><g id="y-base-lines-svg grid-y-svg datawrapper-atjlB-n2qvu0-svg"><line x1="520" x2="0" y1="0" y2="0" transform="translate(0, 155.33333333333334)" style="fill: none; stroke-width: 1; stroke-linejoin: miter; stroke-linecap: square; stroke: rgb(51, 51, 51);"/></g></g></g><g id="values-svg" clip-path="url(#rect-mask-values-RbyNdIsiP3KabVQd6aR1e)" transform="translate(0.00000, 64.00000)"><clipPath id="rect-mask-values-RbyNdIsiP3KabVQd6aR1e"><rect x="0" y="0" width="16" height="20"/></clipPath><path d="M1.5,10 L14.5,10" stroke="rgb(31,119,180)" id="values" style="mix-blend-mode: normal; fill: none; stroke-width: 3; stroke-linejoin: round; stroke-linecap: round; stroke: rgb(31, 119, 180);"/></g><text transform="translate(20, 67.03125)" id="values"><tspan fill="rgb(51,51,51)" x="0" y="14" style="font-family: Arial; font-weight: 400; font-stretch: 100%; font-size: 14px;">Veränderung zum Vorjahr</tspan></text><text transform="translate(558, 79.296875)" id="values"><tspan fill="rgb(51,51,51)" x="0" y="14" style="font-family: Arial; font-weight: 400; font-stretch: 100%; font-size: 14px;">3,4%</tspan></text><g id="tooltip-layer-svg" clip-path="url(#rect-mask-tooltip-layer-_fPnBJFbnJIXt-8-bBTug)" transform="translate(0.00000, 64.00000)"><clipPath id="rect-mask-tooltip-layer-_fPnBJFbnJIXt-8-bBTug"><rect x="0" y="0" width="600" height="296"/></clipPath><g id="group-svg" transform="translate(38, 41)"/></g></g><g id="above-footer-svg"><text transform="translate(0, 380)"><tspan fill="rgb(51,51,51)" x="0" y="12" style="font-family: Arial; font-weight: 400; font-stretch: 100%; font-size: 12px;">Grafik: Keystone-SDA, Quelle: BFS</tspan></text></g><g id="footer-svg"/></g></g></svg>